<svg width="18" height="18" viewBox="0 0 18 18" fill="none" xmlns="http://www.w3.org/2000/svg">
<path fill-rule="evenodd" clip-rule="evenodd" d="M3.56878 7.99048C3.56878 8.54277 4.0165 8.99048 4.56878 8.99048H14.958C15.3952 8.99048 15.7497 9.34492 15.7497 9.78214C15.7497 10.2194 15.3952 10.5738 14.958 10.5738H3.04166C2.60444 10.5738 2.25 10.2194 2.25 9.78214V9.25435C2.25 9.10862 2.36814 8.99048 2.51387 8.99048C2.6596 8.99048 2.77774 8.87234 2.77774 8.72661V4.42677C2.77774 3.22648 3.75425 2.25 4.95454 2.25C5.83798 2.25 6.59979 2.77914 6.94046 3.5371C7.12178 3.94051 7.44087 4.29843 7.80168 4.55423C8.27391 4.88902 8.58271 5.43975 8.58271 6.06143C8.58271 6.35273 8.34657 6.58888 8.05526 6.58888H5.41633C5.12503 6.58888 4.88888 6.35273 4.88888 6.06143C4.88888 5.50285 5.1382 5.00159 5.53138 4.66279C5.92002 4.32789 6.30414 3.82731 5.94605 3.45992C5.69432 3.20165 5.34289 3.04104 4.95454 3.04104C4.19044 3.04104 3.56878 3.66267 3.56878 4.42677V7.99048ZM2.7773 12.4527V11.3649H15.2215V12.4527C15.2215 13.71 14.2975 14.7554 13.0929 14.9457V15.75H12.3019V14.9768H5.69688V15.75H4.90584V14.9457C3.70128 14.7554 2.7773 13.71 2.7773 12.4527Z" fill="#4B5259"/>
</svg>
