<svg width="18" height="18" viewBox="0 0 18 18" fill="none" xmlns="http://www.w3.org/2000/svg">
<path fill-rule="evenodd" clip-rule="evenodd" d="M5.06185 7.875H3.65561C3.50036 7.875 3.37438 7.74899 3.37438 7.59374V5.90624C3.37438 5.13113 4.0055 4.5 4.78062 4.5H13.2181C13.9933 4.5 14.6244 5.13113 14.6244 5.90624V7.59374C14.6244 7.74899 14.4984 7.875 14.3431 7.875H12.9369C13.0235 7.875 13.1051 7.83505 13.1585 7.767C13.2119 7.69895 13.2311 7.60951 13.2097 7.52569L13.0347 6.82651C12.9408 6.4502 12.6039 6.1875 12.2163 6.1875H10.4056C9.94042 6.1875 9.56186 6.56605 9.56186 7.03125V7.59374C9.56186 7.74899 9.68787 7.875 9.84312 7.875H8.15562C8.31087 7.875 8.43688 7.74899 8.43688 7.59374V7.03125C8.43688 6.56605 8.05832 6.1875 7.59313 6.1875H5.78244C5.39487 6.1875 5.05795 6.4502 4.964 6.82651L4.78906 7.52569C4.76823 7.61006 4.78679 7.69895 4.84024 7.767C4.89366 7.83505 4.97524 7.875 5.06185 7.875ZM3.65624 8.43749H14.3438C15.1189 8.43749 15.75 9.06862 15.75 9.84373V13.7812C15.75 13.9365 15.624 14.0625 15.4688 14.0625C15.3135 14.0625 15.1875 13.9365 15.1875 13.7812V12.9375H2.81252V13.7812C2.81252 13.9365 2.68651 14.0625 2.53126 14.0625C2.37601 14.0625 2.25 13.9365 2.25 13.7812V9.84373C2.25 9.06862 2.88113 8.43749 3.65624 8.43749ZM2.81249 12.375H15.1875V11.8125H2.81249V12.375Z" fill="#4B5259"/>
</svg>
