<svg width="50" height="50" viewBox="0 0 50 50" fill="none" xmlns="http://www.w3.org/2000/svg">
<circle cx="25" cy="25" r="25" fill="#1C70BB"/>
<path fill-rule="evenodd" clip-rule="evenodd" d="M23.835 25.0066L23.8366 25.3607C23.8487 26.7652 23.9334 28.0183 24.0794 28.8124C24.0794 28.8267 24.2387 29.6143 24.3401 29.8764C24.4994 30.2554 24.7874 30.577 25.1485 30.7808C25.4376 30.9262 25.7408 31 26.0583 31C26.3078 30.9884 26.7194 30.8629 27.0131 30.7576L27.2572 30.664C28.8739 30.0218 31.9644 27.9234 33.148 26.6402L33.2353 26.5505L33.6247 26.1302C33.8702 25.8085 34 25.4153 34 24.9923C34 24.6134 33.8844 24.2344 33.6531 23.9282C33.5839 23.829 33.4723 23.7017 33.3731 23.5942L32.994 23.1974C31.6895 21.8757 28.8652 20.0218 27.4012 19.4076C27.4012 19.3943 26.4914 19.0143 26.0583 19H26.0005C25.3361 19 24.7154 19.3789 24.3979 19.9914C24.3112 20.1588 24.228 20.4868 24.1648 20.7748L24.051 21.3187C23.9212 22.1933 23.835 23.535 23.835 25.0066ZM17.5033 23.4817C16.6731 23.4817 16 24.1613 16 24.9996C16 25.8378 16.6731 26.5175 17.5033 26.5175L21.2025 26.1903C21.8537 26.1903 22.3817 25.6583 22.3817 24.9996C22.3817 24.3419 21.8537 23.8088 21.2025 23.8088L17.5033 23.4817Z" fill="white"/>
</svg>
