<svg width="14" height="15" viewBox="0 0 14 15" fill="none" xmlns="http://www.w3.org/2000/svg">
<path fill-rule="evenodd" clip-rule="evenodd" d="M9.88998 0.833008H4.11065C1.8456 0.833008 0.333984 2.45474 0.333984 4.77701V10.2223C0.333984 12.547 1.84112 14.1663 4.11065 14.1663H9.88932C12.1591 14.1663 13.6673 12.5468 13.6673 10.2223V4.77701C13.6673 2.45268 12.1592 0.833008 9.88998 0.833008ZM4.11065 1.83301H9.88998C11.5903 1.83301 12.6673 2.98965 12.6673 4.77701V10.2223C12.6673 12.0098 11.5902 13.1663 9.88932 13.1663H4.11065C2.41008 13.1663 1.33398 12.0102 1.33398 10.2223V4.77701C1.33398 2.99192 2.41421 1.83301 4.11065 1.83301ZM3.21539 7.49981C3.21539 7.93981 3.57339 8.29781 4.01406 8.29781C4.45472 8.29781 4.81272 7.93981 4.81272 7.49981C4.81272 7.05981 4.45472 6.70114 4.01406 6.70114C3.57339 6.70114 3.21539 7.05981 3.21539 7.49981ZM7.00031 8.29781C6.55965 8.29781 6.20165 7.93981 6.20165 7.49981C6.20165 7.05981 6.55965 6.70114 7.00031 6.70114C7.44098 6.70114 7.79898 7.05981 7.79898 7.49981C7.79898 7.93981 7.44098 8.29781 7.00031 8.29781ZM9.18764 7.49981C9.18764 7.93981 9.54564 8.29781 9.98631 8.29781C10.427 8.29781 10.785 7.93981 10.785 7.49981C10.785 7.05981 10.427 6.70114 9.98631 6.70114C9.54564 6.70114 9.18764 7.05981 9.18764 7.49981Z" fill="#787D82"/>
</svg>
