<svg width="12" height="15" viewBox="0 0 12 15" fill="none" xmlns="http://www.w3.org/2000/svg">
<path fill-rule="evenodd" clip-rule="evenodd" d="M8.94574 1.23501C8.91518 1.00799 8.72208 0.833008 8.48842 0.833008C8.23352 0.833008 8.02688 1.04125 8.02688 1.29812V1.81236H3.97875V1.29812L3.97454 1.23501C3.94397 1.00799 3.75087 0.833008 3.51721 0.833008C3.26231 0.833008 3.05568 1.04125 3.05568 1.29812V1.8239C1.16436 1.95417 0 3.17963 0 5.15687V10.769C0 12.8912 1.30556 14.1663 3.3975 14.1663H8.60243C10.6969 14.1663 12 12.9125 12 10.816V5.15687C12.006 3.17892 10.8454 1.9538 8.94996 1.82385V1.29812L8.94574 1.23501ZM8.02688 2.74259V3.33892L8.0311 3.40203C8.06166 3.62905 8.25476 3.80403 8.48842 3.80403C8.74332 3.80403 8.94996 3.59579 8.94996 3.33892V2.75634C10.329 2.87107 11.0813 3.7015 11.0769 5.15544V5.42479H0.923082V5.15687C0.923082 3.70385 1.6795 2.87167 3.05568 2.75643V3.33892L3.05989 3.40203C3.09045 3.62905 3.28355 3.80403 3.51721 3.80403C3.77211 3.80403 3.97875 3.59579 3.97875 3.33892V2.74259H8.02688ZM0.923082 6.35503V10.769C0.923082 12.3708 1.80902 13.2361 3.39751 13.2361H8.60244C10.1964 13.2361 11.0769 12.3889 11.0769 10.816L11.0769 6.35503H0.923082ZM9.20079 8.31189C9.20079 8.05501 8.99415 7.84677 8.73925 7.84677L8.67092 7.85102C8.44565 7.88181 8.27201 8.07642 8.27201 8.31189C8.27201 8.56876 8.47865 8.777 8.73925 8.777L8.80188 8.77276C9.02715 8.74196 9.20079 8.54736 9.20079 8.31189ZM6.00853 7.84677C6.26343 7.84677 6.47006 8.05501 6.47006 8.31189C6.47006 8.54736 6.29643 8.74196 6.07116 8.77276L6.00853 8.777C5.74793 8.777 5.54129 8.56876 5.54129 8.31189C5.54129 8.07642 5.71492 7.88181 5.9402 7.85102L6.00853 7.84677ZM3.73362 8.31189C3.73362 8.05501 3.52698 7.84677 3.27208 7.84677L3.20375 7.85102C2.97847 7.88181 2.80484 8.07642 2.80484 8.31189C2.80484 8.56876 3.01148 8.777 3.26638 8.777L3.33471 8.77276C3.55998 8.74196 3.73362 8.54736 3.73362 8.31189ZM8.73925 10.257C8.99415 10.257 9.20079 10.4653 9.20079 10.7221C9.20079 10.9576 9.02715 11.1522 8.80188 11.183L8.73925 11.1873C8.47865 11.1873 8.27201 10.979 8.27201 10.7221C8.27201 10.4867 8.44565 10.2921 8.67092 10.2613L8.73925 10.257ZM6.47006 10.7221C6.47006 10.4653 6.26343 10.257 6.00853 10.257L5.9402 10.2613C5.71492 10.2921 5.54129 10.4867 5.54129 10.7221C5.54129 10.979 5.74793 11.1873 6.00853 11.1873L6.07116 11.183C6.29643 11.1522 6.47006 10.9576 6.47006 10.7221ZM3.27208 10.257C3.52698 10.257 3.73362 10.4653 3.73362 10.7221C3.73362 10.9576 3.55998 11.1522 3.33471 11.183L3.26638 11.1873C3.01148 11.1873 2.80484 10.979 2.80484 10.7221C2.80484 10.4867 2.97847 10.2921 3.20375 10.2613L3.27208 10.257Z" fill="#A5A8AC"/>
</svg>
