<svg width="35" height="36" viewBox="0 0 35 36" fill="none" xmlns="http://www.w3.org/2000/svg">
<rect x="1.80078" y="16.2002" width="14.4" height="5.4" fill="url(#paint0_linear_1156_3686)"/>
<rect x="18" y="16.2002" width="14.4" height="5.4" fill="url(#paint1_linear_1156_3686)"/>
<path d="M0 30.6002L16.2 36.0002V30.6002L0 25.2002V27.0002V30.6002Z" fill="url(#paint2_linear_1156_3686)"/>
<path d="M0 7.2L16.2 0V5.4L0 12.6V7.2Z" fill="url(#paint3_linear_1156_3686)"/>
<path d="M0 30.6037L0 7.20371L5.4 4.80274L5.4 32.4004L0 30.6037Z" fill="url(#paint4_linear_1156_3686)"/>
<path d="M17.9993 0C22.3648 0.536889 26.7799 2.78725 29.6913 6.08417C32.6028 9.38109 34.2064 13.63 34.1992 18.0284C34.192 22.4269 32.5746 26.6705 29.6523 29.9579C26.7301 33.2453 22.3666 35.4774 17.9993 36V30.6C21.0561 30.2342 23.5701 28.6703 25.6154 26.3693C27.6608 24.0684 28.7929 21.0982 28.7979 18.0196C28.8029 14.941 27.6806 11.9671 25.6427 9.65949C23.6049 7.35188 21.0548 5.77578 17.9993 5.4V0Z" fill="url(#paint5_linear_1156_3686)"/>
<defs>
<linearGradient id="paint0_linear_1156_3686" x1="1.80078" y1="18.9002" x2="16.2101" y2="19.6118" gradientUnits="userSpaceOnUse">
<stop stop-color="#1C70BB"/>
<stop offset="1" stop-color="#00AFFF"/>
</linearGradient>
<linearGradient id="paint1_linear_1156_3686" x1="18" y1="18.9002" x2="32.4093" y2="19.6118" gradientUnits="userSpaceOnUse">
<stop stop-color="#00AFFF"/>
<stop offset="1" stop-color="#1C70BB"/>
</linearGradient>
<linearGradient id="paint2_linear_1156_3686" x1="0" y1="25.2002" x2="16.2" y2="36.0002" gradientUnits="userSpaceOnUse">
<stop stop-color="#1C70BB"/>
<stop offset="1" stop-color="#00B5FE"/>
</linearGradient>
<linearGradient id="paint3_linear_1156_3686" x1="3.51054e-07" y1="12.6" x2="16.2" y2="-7.12839e-06" gradientUnits="userSpaceOnUse">
<stop stop-color="#1C70BB"/>
<stop offset="1" stop-color="#00B5FE"/>
</linearGradient>
<linearGradient id="paint4_linear_1156_3686" x1="1.8" y1="32.4004" x2="2.7" y2="5.4004" gradientUnits="userSpaceOnUse">
<stop stop-color="#02B5FF"/>
<stop offset="0.5" stop-color="#1F7FFF"/>
<stop offset="1" stop-color="#02B5FF"/>
</linearGradient>
<linearGradient id="paint5_linear_1156_3686" x1="26.0992" y1="0" x2="26.0992" y2="36" gradientUnits="userSpaceOnUse">
<stop stop-color="#02B5FF"/>
<stop offset="0.515625" stop-color="#026EFE"/>
<stop offset="1" stop-color="#02B5FF"/>
</linearGradient>
</defs>
</svg>
