<svg width="191" height="36" viewBox="0 0 191 36" fill="none" xmlns="http://www.w3.org/2000/svg">
<path d="M44.4908 26.0998C44.2908 26.0998 44.1208 26.0398 43.9808 25.9198C43.8608 25.7798 43.8008 25.6098 43.8008 25.4098V5.8198C43.8008 5.5998 43.8608 5.4298 43.9808 5.30981C44.1208 5.1698 44.2908 5.0998 44.4908 5.0998H56.8808C57.0808 5.0998 57.2408 5.1698 57.3608 5.30981C57.5008 5.4298 57.5708 5.5998 57.5708 5.8198V6.95981C57.5708 7.15981 57.5108 7.3298 57.3908 7.4698C57.2708 7.5898 57.1008 7.64981 56.8808 7.64981H46.6808V14.2198H56.2208C56.4208 14.2198 56.5808 14.2898 56.7008 14.4298C56.8408 14.5498 56.9108 14.7198 56.9108 14.9398V16.0498C56.9108 16.2498 56.8408 16.4198 56.7008 16.5598C56.5808 16.6798 56.4208 16.7398 56.2208 16.7398H46.6808V23.5498H57.1208C57.3408 23.5498 57.5108 23.6098 57.6308 23.7298C57.7508 23.8498 57.8108 24.0198 57.8108 24.2398V25.4098C57.8108 25.6098 57.7408 25.7798 57.6008 25.9198C57.4808 26.0398 57.3208 26.0998 57.1208 26.0998H44.4908Z" fill="#FAFBFF"/>
<path d="M65.0541 26.3998C64.0741 26.3998 63.1641 26.1998 62.3241 25.7998C61.4841 25.3998 60.8141 24.8598 60.3141 24.1798C59.8341 23.4798 59.5941 22.7098 59.5941 21.8698C59.5941 20.5498 60.1341 19.4698 61.2141 18.6298C62.3141 17.7698 63.7941 17.2098 65.6541 16.9498L70.1241 16.3198V15.4498C70.1241 13.4098 68.9541 12.3898 66.6141 12.3898C65.7341 12.3898 65.0141 12.5798 64.4541 12.9598C63.8941 13.3198 63.4741 13.7498 63.1941 14.2498C63.1341 14.4298 63.0541 14.5598 62.9541 14.6398C62.8741 14.7198 62.7541 14.7598 62.5941 14.7598H61.3041C61.1241 14.7598 60.9641 14.6998 60.8241 14.5798C60.7041 14.4398 60.6441 14.2798 60.6441 14.0998C60.6641 13.6198 60.8841 13.0798 61.3041 12.4798C61.7441 11.8598 62.4141 11.3298 63.3141 10.8898C64.2141 10.4298 65.3241 10.1998 66.6441 10.1998C68.8841 10.1998 70.4941 10.7298 71.4741 11.7898C72.4541 12.8298 72.9441 14.1298 72.9441 15.6898V25.4098C72.9441 25.6098 72.8741 25.7798 72.7341 25.9198C72.6141 26.0398 72.4541 26.0998 72.2541 26.0998H70.8741C70.6741 26.0998 70.5041 26.0398 70.3641 25.9198C70.2441 25.7798 70.1841 25.6098 70.1841 25.4098V24.1198C69.7441 24.7598 69.1041 25.2998 68.2641 25.7398C67.4241 26.1798 66.3541 26.3998 65.0541 26.3998ZM65.6841 24.1498C66.9841 24.1498 68.0441 23.7298 68.8641 22.8898C69.7041 22.0298 70.1241 20.7998 70.1241 19.1998V18.3598L66.6441 18.8698C65.2241 19.0698 64.1541 19.4098 63.4341 19.8898C62.7141 20.3498 62.3541 20.9398 62.3541 21.6598C62.3541 22.4598 62.6841 23.0798 63.3441 23.5198C64.0041 23.9398 64.7841 24.1498 65.6841 24.1498Z" fill="#FAFBFF"/>
<path d="M81.7569 26.3998C80.3569 26.3998 79.1769 26.1798 78.2169 25.7398C77.2769 25.2798 76.5669 24.7598 76.0869 24.1798C75.6269 23.5998 75.3969 23.1198 75.3969 22.7398C75.3969 22.5398 75.4669 22.3898 75.6069 22.2898C75.7669 22.1698 75.9269 22.1098 76.0869 22.1098H77.4369C77.6369 22.1098 77.8169 22.2098 77.9769 22.4098C78.4569 22.9698 78.9769 23.4098 79.5369 23.7298C80.0969 24.0498 80.8469 24.2098 81.7869 24.2098C82.8269 24.2098 83.6669 24.0098 84.3069 23.6098C84.9669 23.1898 85.2969 22.6198 85.2969 21.8998C85.2969 21.4198 85.1569 21.0298 84.8769 20.7298C84.6169 20.4098 84.1569 20.1398 83.4969 19.9198C82.8569 19.6798 81.8969 19.4198 80.6169 19.1398C78.8769 18.7598 77.6369 18.2098 76.8969 17.4898C76.1769 16.7698 75.8169 15.8398 75.8169 14.6998C75.8169 13.9398 76.0369 13.2198 76.4769 12.5398C76.9369 11.8398 77.5969 11.2798 78.4569 10.8598C79.3369 10.4198 80.3869 10.1998 81.6069 10.1998C82.8869 10.1998 83.9769 10.4098 84.8769 10.8298C85.7769 11.2498 86.4469 11.7498 86.8869 12.3298C87.3469 12.8898 87.5769 13.3598 87.5769 13.7398C87.5769 13.9198 87.5069 14.0698 87.3669 14.1898C87.2469 14.3098 87.0969 14.3698 86.9169 14.3698H85.6569C85.4169 14.3698 85.2169 14.2698 85.0569 14.0698C84.7369 13.6898 84.4569 13.3998 84.2169 13.1998C83.9969 12.9798 83.6669 12.7898 83.2269 12.6298C82.8069 12.4698 82.2669 12.3898 81.6069 12.3898C80.6469 12.3898 79.9069 12.5998 79.3869 13.0198C78.8669 13.4198 78.6069 13.9498 78.6069 14.6098C78.6069 15.0298 78.7169 15.3898 78.9369 15.6898C79.1569 15.9698 79.5769 16.2298 80.1969 16.4698C80.8369 16.7098 81.7569 16.9598 82.9569 17.2198C84.8569 17.6198 86.1969 18.1998 86.9769 18.9598C87.7769 19.6998 88.1769 20.6498 88.1769 21.8098C88.1769 22.6698 87.9269 23.4498 87.4269 24.1498C86.9269 24.8498 86.1869 25.3998 85.2069 25.7998C84.2469 26.1998 83.0969 26.3998 81.7569 26.3998Z" fill="#FAFBFF"/>
<path d="M92.9525 31.7998C92.7925 31.7998 92.6525 31.7398 92.5325 31.6198C92.4125 31.4998 92.3525 31.3598 92.3525 31.1998C92.3525 31.0598 92.4025 30.8798 92.5025 30.6598L94.8125 25.1698L89.0825 11.6398C88.9825 11.3798 88.9325 11.2098 88.9325 11.1298C88.9325 10.9498 88.9925 10.7998 89.1125 10.6798C89.2325 10.5598 89.3825 10.4998 89.5625 10.4998H91.0325C91.3525 10.4998 91.5925 10.6698 91.7525 11.0098L96.3125 21.9298L100.993 11.0098C101.153 10.6698 101.403 10.4998 101.743 10.4998H103.153C103.333 10.4998 103.483 10.5598 103.603 10.6798C103.723 10.7998 103.783 10.9398 103.783 11.0998C103.783 11.1598 103.733 11.3398 103.633 11.6398L95.1125 31.2898C94.9525 31.6298 94.7025 31.7998 94.3625 31.7998H92.9525Z" fill="#FAFBFF"/>
<path d="M105.712 18.3598C105.512 18.3598 105.342 18.2998 105.202 18.1798C105.082 18.0398 105.022 17.8698 105.022 17.6698V16.5298C105.022 16.3298 105.082 16.1698 105.202 16.0498C105.342 15.9098 105.512 15.8398 105.712 15.8398H114.712C114.912 15.8398 115.072 15.9098 115.192 16.0498C115.332 16.1698 115.402 16.3298 115.402 16.5298V17.6698C115.402 17.8698 115.332 18.0398 115.192 18.1798C115.072 18.2998 114.912 18.3598 114.712 18.3598H105.712Z" fill="#FAFBFF"/>
<path d="M122.54 26.0998C122.34 26.0998 122.17 26.0398 122.03 25.9198C121.91 25.7798 121.85 25.6098 121.85 25.4098V7.76981H116.09C115.89 7.76981 115.72 7.70981 115.58 7.5898C115.46 7.44981 115.4 7.27981 115.4 7.07981V5.8198C115.4 5.6198 115.46 5.4498 115.58 5.30981C115.72 5.1698 115.89 5.0998 116.09 5.0998H130.55C130.77 5.0998 130.94 5.1698 131.06 5.30981C131.2 5.4298 131.27 5.5998 131.27 5.8198V7.07981C131.27 7.27981 131.2 7.44981 131.06 7.5898C130.92 7.70981 130.75 7.76981 130.55 7.76981H124.82V25.4098C124.82 25.6098 124.75 25.7798 124.61 25.9198C124.47 26.0398 124.3 26.0998 124.1 26.0998H122.54Z" fill="#FAFBFF"/>
<path d="M131.601 26.0998C131.401 26.0998 131.231 26.0398 131.091 25.9198C130.971 25.7798 130.911 25.6098 130.911 25.4098V11.2198C130.911 11.0198 130.971 10.8498 131.091 10.7098C131.231 10.5698 131.401 10.4998 131.601 10.4998H132.981C133.181 10.4998 133.351 10.5698 133.491 10.7098C133.631 10.8498 133.701 11.0198 133.701 11.2198V12.5398C134.521 11.1798 135.921 10.4998 137.901 10.4998H139.071C139.271 10.4998 139.431 10.5698 139.551 10.7098C139.691 10.8298 139.761 10.9898 139.761 11.1898V12.4198C139.761 12.6198 139.691 12.7798 139.551 12.8998C139.431 13.0198 139.271 13.0798 139.071 13.0798H137.271C136.191 13.0798 135.341 13.3998 134.721 14.0398C134.101 14.6598 133.791 15.5098 133.791 16.5898V25.4098C133.791 25.6098 133.721 25.7798 133.581 25.9198C133.441 26.0398 133.271 26.0998 133.071 26.0998H131.601Z" fill="#FAFBFF"/>
<path d="M145.523 26.3998C144.543 26.3998 143.633 26.1998 142.793 25.7998C141.953 25.3998 141.283 24.8598 140.783 24.1798C140.303 23.4798 140.063 22.7098 140.063 21.8698C140.063 20.5498 140.603 19.4698 141.683 18.6298C142.783 17.7698 144.263 17.2098 146.123 16.9498L150.593 16.3198V15.4498C150.593 13.4098 149.423 12.3898 147.083 12.3898C146.203 12.3898 145.483 12.5798 144.923 12.9598C144.363 13.3198 143.943 13.7498 143.663 14.2498C143.603 14.4298 143.523 14.5598 143.423 14.6398C143.343 14.7198 143.223 14.7598 143.063 14.7598H141.773C141.593 14.7598 141.433 14.6998 141.293 14.5798C141.173 14.4398 141.113 14.2798 141.113 14.0998C141.133 13.6198 141.353 13.0798 141.773 12.4798C142.213 11.8598 142.883 11.3298 143.783 10.8898C144.683 10.4298 145.793 10.1998 147.113 10.1998C149.353 10.1998 150.963 10.7298 151.943 11.7898C152.923 12.8298 153.413 14.1298 153.413 15.6898V25.4098C153.413 25.6098 153.343 25.7798 153.203 25.9198C153.083 26.0398 152.923 26.0998 152.723 26.0998H151.343C151.143 26.0998 150.973 26.0398 150.833 25.9198C150.713 25.7798 150.653 25.6098 150.653 25.4098V24.1198C150.213 24.7598 149.573 25.2998 148.733 25.7398C147.893 26.1798 146.823 26.3998 145.523 26.3998ZM146.153 24.1498C147.453 24.1498 148.513 23.7298 149.333 22.8898C150.173 22.0298 150.593 20.7998 150.593 19.1998V18.3598L147.113 18.8698C145.693 19.0698 144.623 19.4098 143.903 19.8898C143.183 20.3498 142.823 20.9398 142.823 21.6598C142.823 22.4598 143.153 23.0798 143.813 23.5198C144.473 23.9398 145.253 24.1498 146.153 24.1498Z" fill="#FAFBFF"/>
<path d="M161.963 26.0998C161.443 26.0998 161.073 25.8498 160.853 25.3498L155.303 11.4298L155.243 11.1298C155.243 10.9498 155.303 10.7998 155.423 10.6798C155.543 10.5598 155.693 10.4998 155.873 10.4998H157.313C157.653 10.4998 157.903 10.6698 158.063 11.0098L162.623 22.8298L167.183 11.0098C167.363 10.6698 167.603 10.4998 167.903 10.4998H169.373C169.533 10.4998 169.673 10.5598 169.793 10.6798C169.933 10.7998 170.003 10.9498 170.003 11.1298L169.943 11.4298L164.363 25.3498C164.143 25.8498 163.773 26.0998 163.253 26.0998H161.963Z" fill="#FAFBFF"/>
<path d="M177.928 26.3998C175.868 26.3998 174.218 25.7698 172.978 24.5098C171.758 23.2298 171.088 21.4898 170.968 19.2898L170.938 18.2698L170.968 17.2798C171.108 15.1198 171.788 13.3998 173.008 12.1198C174.248 10.8398 175.878 10.1998 177.898 10.1998C180.118 10.1998 181.838 10.9098 183.058 12.3298C184.278 13.7298 184.888 15.6298 184.888 18.0298V18.5398C184.888 18.7398 184.818 18.9098 184.678 19.0498C184.558 19.1698 184.398 19.2298 184.198 19.2298H173.818V19.4998C173.878 20.7998 174.268 21.9098 174.988 22.8298C175.728 23.7298 176.698 24.1798 177.898 24.1798C178.818 24.1798 179.568 23.9998 180.148 23.6398C180.748 23.2598 181.188 22.8698 181.468 22.4698C181.648 22.2298 181.778 22.0898 181.858 22.0498C181.958 21.9898 182.128 21.9598 182.368 21.9598H183.838C184.018 21.9598 184.168 22.0098 184.288 22.1098C184.408 22.2098 184.468 22.3498 184.468 22.5298C184.468 22.9698 184.188 23.4998 183.628 24.1198C183.088 24.7398 182.318 25.2798 181.318 25.7398C180.338 26.1798 179.208 26.3998 177.928 26.3998ZM182.038 17.1598V17.0698C182.038 15.6898 181.658 14.5698 180.898 13.7098C180.158 12.8298 179.158 12.3898 177.898 12.3898C176.638 12.3898 175.638 12.8298 174.898 13.7098C174.178 14.5698 173.818 15.6898 173.818 17.0698V17.1598H182.038Z" fill="#FAFBFF"/>
<path d="M188.295 26.0998C188.095 26.0998 187.925 26.0398 187.785 25.9198C187.665 25.7798 187.605 25.6098 187.605 25.4098V5.4898C187.605 5.2898 187.665 5.12981 187.785 5.00981C187.925 4.8698 188.095 4.7998 188.295 4.7998H189.705C189.905 4.7998 190.065 4.8698 190.185 5.00981C190.325 5.12981 190.395 5.2898 190.395 5.4898V25.4098C190.395 25.6098 190.325 25.7798 190.185 25.9198C190.065 26.0398 189.905 26.0998 189.705 26.0998H188.295Z" fill="#FAFBFF"/>
<rect x="1.80078" y="16.2002" width="14.4" height="5.40001" fill="url(#paint0_linear_490_5123)"/>
<rect x="18" y="16.2002" width="14.4" height="5.40001" fill="url(#paint1_linear_490_5123)"/>
<path d="M0 30.6002L16.2 36.0002V30.6002L0 25.2002V27.0002V30.6002Z" fill="url(#paint2_linear_490_5123)"/>
<path d="M0 7.2L16.2 0V5.4L0 12.6V7.2Z" fill="url(#paint3_linear_490_5123)"/>
<path d="M0 30.6037L0 7.20371L5.4 4.80274L5.4 32.4004L0 30.6037Z" fill="url(#paint4_linear_490_5123)"/>
<path d="M17.9993 0C22.3648 0.536889 26.7798 2.78725 29.6913 6.08417C32.6028 9.38109 34.2064 13.63 34.1992 18.0284C34.192 22.4269 32.5746 26.6705 29.6523 29.9579C26.7301 33.2453 22.3666 35.4774 17.9993 36V30.6C21.056 30.2342 23.5701 28.6703 25.6154 26.3693C27.6608 24.0684 28.7929 21.0982 28.7979 18.0196C28.8029 14.941 27.6806 11.9671 25.6427 9.65949C23.6049 7.35188 21.0548 5.77578 17.9993 5.4V0Z" fill="url(#paint5_linear_490_5123)"/>
<defs>
<linearGradient id="paint0_linear_490_5123" x1="1.80078" y1="18.9002" x2="16.2101" y2="19.6118" gradientUnits="userSpaceOnUse">
<stop stop-color="#D2D4D5"/>
<stop offset="0.628376" stop-color="white"/>
</linearGradient>
<linearGradient id="paint1_linear_490_5123" x1="18" y1="18.9002" x2="32.4093" y2="19.6118" gradientUnits="userSpaceOnUse">
<stop offset="0.41162" stop-color="white"/>
<stop offset="1" stop-color="#D2D4D5"/>
</linearGradient>
<linearGradient id="paint2_linear_490_5123" x1="0" y1="25.2002" x2="16.2" y2="36.0002" gradientUnits="userSpaceOnUse">
<stop stop-color="#D2D4D5"/>
<stop offset="0.660304" stop-color="white"/>
</linearGradient>
<linearGradient id="paint3_linear_490_5123" x1="3.51054e-07" y1="12.6" x2="16.2" y2="-7.12839e-06" gradientUnits="userSpaceOnUse">
<stop stop-color="#D2D4D5"/>
<stop offset="0.690712" stop-color="white"/>
</linearGradient>
<linearGradient id="paint4_linear_490_5123" x1="1.8" y1="32.4004" x2="2.7" y2="5.4004" gradientUnits="userSpaceOnUse">
<stop stop-color="white"/>
<stop offset="0.5" stop-color="#F3F5F7"/>
<stop offset="1" stop-color="white"/>
</linearGradient>
<linearGradient id="paint5_linear_490_5123" x1="26.0992" y1="0" x2="26.0992" y2="36" gradientUnits="userSpaceOnUse">
<stop stop-color="white"/>
<stop offset="0.515625" stop-color="#F3F5F7"/>
<stop offset="1" stop-color="white"/>
</linearGradient>
</defs>
</svg>
