<svg width="18" height="17" viewBox="0 0 18 17" fill="none" xmlns="http://www.w3.org/2000/svg">
<path d="M13.9317 10.433C13.7159 10.6422 13.6167 10.9447 13.6659 11.2413L14.4067 15.3413C14.4692 15.6888 14.3226 16.0405 14.0317 16.2413C13.7467 16.4497 13.3676 16.4747 13.0567 16.308L9.36591 14.383C9.23758 14.3147 9.09508 14.278 8.94925 14.2738H8.72341C8.64508 14.2855 8.56841 14.3105 8.49841 14.3488L4.80675 16.283C4.62425 16.3747 4.41758 16.4072 4.21508 16.3747C3.72175 16.2813 3.39258 15.8113 3.47341 15.3155L4.21508 11.2155C4.26425 10.9163 4.16508 10.6122 3.94925 10.3997L0.940079 7.48301C0.688412 7.23884 0.600912 6.87217 0.715912 6.54134C0.827579 6.21134 1.11258 5.97051 1.45675 5.91634L5.59841 5.31551C5.91341 5.28301 6.19008 5.09134 6.33175 4.80801L8.15674 1.06634C8.20008 0.983008 8.25591 0.906341 8.32341 0.841341L8.39841 0.783008C8.43758 0.739674 8.48258 0.703841 8.53258 0.674674L8.62341 0.641341L8.76508 0.583008H9.11591C9.42924 0.615508 9.70508 0.803008 9.84925 1.08301L11.6984 4.80801C11.8317 5.08051 12.0909 5.26967 12.3901 5.31551L16.5317 5.91634C16.8817 5.96634 17.1742 6.20801 17.2901 6.54134C17.3992 6.87551 17.3051 7.24217 17.0484 7.48301L13.9317 10.433Z" fill="#FF8700"/>
</svg>
