<svg width="191" height="36" viewBox="0 0 191 36" fill="none" xmlns="http://www.w3.org/2000/svg">
<rect x="1.7998" y="16.2002" width="14.4" height="5.4" fill="url(#paint0_linear_491_5114)"/>
<rect x="18" y="16.2002" width="14.4" height="5.4" fill="url(#paint1_linear_491_5114)"/>
<path d="M0 30.6002L16.2 36.0002V30.6002L0 25.2002V27.0002V30.6002Z" fill="url(#paint2_linear_491_5114)"/>
<path d="M0 7.2L16.2 0V5.4L0 12.6V7.2Z" fill="url(#paint3_linear_491_5114)"/>
<path d="M0 30.6037L0 7.20371L5.4 4.80274L5.4 32.4004L0 30.6037Z" fill="url(#paint4_linear_491_5114)"/>
<path d="M18.0002 0C22.3658 0.536889 26.7808 2.78725 29.6923 6.08417C32.6038 9.38109 34.2074 13.63 34.2002 18.0284C34.193 22.4269 32.5755 26.6705 29.6533 29.9579C26.731 33.2453 22.3675 35.4774 18.0002 36V30.6C21.057 30.2342 23.571 28.6703 25.6164 26.3693C27.6618 24.0684 28.7939 21.0982 28.7989 18.0196C28.8039 14.941 27.6815 11.9671 25.6437 9.65949C23.6059 7.35188 21.0558 5.77578 18.0002 5.4V0Z" fill="url(#paint5_linear_491_5114)"/>
<path d="M44.4898 28.5002C44.2898 28.5002 44.1198 28.4402 43.9798 28.3202C43.8598 28.1802 43.7998 28.0102 43.7998 27.8102V8.22019C43.7998 8.0002 43.8598 7.8302 43.9798 7.7102C44.1198 7.5702 44.2898 7.50019 44.4898 7.50019H56.8798C57.0798 7.50019 57.2398 7.5702 57.3598 7.7102C57.4998 7.8302 57.5698 8.0002 57.5698 8.22019V9.3602C57.5698 9.5602 57.5098 9.7302 57.3898 9.87019C57.2698 9.9902 57.0998 10.0502 56.8798 10.0502H46.6798V16.6202H56.2198C56.4198 16.6202 56.5798 16.6902 56.6998 16.8302C56.8398 16.9502 56.9098 17.1202 56.9098 17.3402V18.4502C56.9098 18.6502 56.8398 18.8202 56.6998 18.9602C56.5798 19.0802 56.4198 19.1402 56.2198 19.1402H46.6798V25.9502H57.1198C57.3398 25.9502 57.5098 26.0102 57.6298 26.1302C57.7498 26.2502 57.8098 26.4202 57.8098 26.6402V27.8102C57.8098 28.0102 57.7398 28.1802 57.5998 28.3202C57.4798 28.4402 57.3198 28.5002 57.1198 28.5002H44.4898Z" fill="#1E272F"/>
<path d="M65.0532 28.8002C64.0732 28.8002 63.1632 28.6002 62.3232 28.2002C61.4832 27.8002 60.8132 27.2602 60.3132 26.5802C59.8332 25.8802 59.5932 25.1102 59.5932 24.2702C59.5932 22.9502 60.1332 21.8702 61.2132 21.0302C62.3132 20.1702 63.7932 19.6102 65.6532 19.3502L70.1232 18.7202V17.8502C70.1232 15.8102 68.9532 14.7902 66.6132 14.7902C65.7332 14.7902 65.0132 14.9802 64.4532 15.3602C63.8932 15.7202 63.4732 16.1502 63.1932 16.6502C63.1332 16.8302 63.0532 16.9602 62.9532 17.0402C62.8732 17.1202 62.7532 17.1602 62.5932 17.1602H61.3032C61.1232 17.1602 60.9632 17.1002 60.8232 16.9802C60.7032 16.8402 60.6432 16.6802 60.6432 16.5002C60.6632 16.0202 60.8832 15.4802 61.3032 14.8802C61.7432 14.2602 62.4132 13.7302 63.3132 13.2902C64.2132 12.8302 65.3232 12.6002 66.6432 12.6002C68.8832 12.6002 70.4932 13.1302 71.4732 14.1902C72.4532 15.2302 72.9432 16.5302 72.9432 18.0902V27.8102C72.9432 28.0102 72.8732 28.1802 72.7332 28.3202C72.6132 28.4402 72.4532 28.5002 72.2532 28.5002H70.8732C70.6732 28.5002 70.5032 28.4402 70.3632 28.3202C70.2432 28.1802 70.1832 28.0102 70.1832 27.8102V26.5202C69.7432 27.1602 69.1032 27.7002 68.2632 28.1402C67.4232 28.5802 66.3532 28.8002 65.0532 28.8002ZM65.6832 26.5502C66.9832 26.5502 68.0432 26.1302 68.8632 25.2902C69.7032 24.4302 70.1232 23.2002 70.1232 21.6002V20.7602L66.6432 21.2702C65.2232 21.4702 64.1532 21.8102 63.4332 22.2902C62.7132 22.7502 62.3532 23.3402 62.3532 24.0602C62.3532 24.8602 62.6832 25.4802 63.3432 25.9202C64.0032 26.3402 64.7832 26.5502 65.6832 26.5502Z" fill="#1E272F"/>
<path d="M81.7559 28.8002C80.3559 28.8002 79.1759 28.5802 78.2159 28.1402C77.2759 27.6802 76.5659 27.1602 76.0859 26.5802C75.6259 26.0002 75.3959 25.5202 75.3959 25.1402C75.3959 24.9402 75.4659 24.7902 75.6059 24.6902C75.7659 24.5702 75.9259 24.5102 76.0859 24.5102H77.4359C77.6359 24.5102 77.8159 24.6102 77.9759 24.8102C78.4559 25.3702 78.9759 25.8102 79.5359 26.1302C80.0959 26.4502 80.8459 26.6102 81.7859 26.6102C82.8259 26.6102 83.6659 26.4102 84.3059 26.0102C84.9659 25.5902 85.2959 25.0202 85.2959 24.3002C85.2959 23.8202 85.1559 23.4302 84.8759 23.1302C84.6159 22.8102 84.1559 22.5402 83.4959 22.3202C82.8559 22.0802 81.8959 21.8202 80.6159 21.5402C78.8759 21.1602 77.6359 20.6102 76.8959 19.8902C76.1759 19.1702 75.8159 18.2402 75.8159 17.1002C75.8159 16.3402 76.0359 15.6202 76.4759 14.9402C76.9359 14.2402 77.5959 13.6802 78.4559 13.2602C79.3359 12.8202 80.3859 12.6002 81.6059 12.6002C82.8859 12.6002 83.9759 12.8102 84.8759 13.2302C85.7759 13.6502 86.4459 14.1502 86.8859 14.7302C87.3459 15.2902 87.5759 15.7602 87.5759 16.1402C87.5759 16.3202 87.5059 16.4702 87.3659 16.5902C87.2459 16.7102 87.0959 16.7702 86.9159 16.7702H85.6559C85.4159 16.7702 85.2159 16.6702 85.0559 16.4702C84.7359 16.0902 84.4559 15.8002 84.2159 15.6002C83.9959 15.3802 83.6659 15.1902 83.2259 15.0302C82.8059 14.8702 82.2659 14.7902 81.6059 14.7902C80.6459 14.7902 79.9059 15.0002 79.3859 15.4202C78.8659 15.8202 78.6059 16.3502 78.6059 17.0102C78.6059 17.4302 78.7159 17.7902 78.9359 18.0902C79.1559 18.3702 79.5759 18.6302 80.1959 18.8702C80.8359 19.1102 81.7559 19.3602 82.9559 19.6202C84.8559 20.0202 86.1959 20.6002 86.9759 21.3602C87.7759 22.1002 88.1759 23.0502 88.1759 24.2102C88.1759 25.0702 87.9259 25.8502 87.4259 26.5502C86.9259 27.2502 86.1859 27.8002 85.2059 28.2002C84.2459 28.6002 83.0959 28.8002 81.7559 28.8002Z" fill="#1E272F"/>
<path d="M92.9515 34.2002C92.7915 34.2002 92.6515 34.1402 92.5315 34.0202C92.4115 33.9002 92.3515 33.7602 92.3515 33.6002C92.3515 33.4602 92.4015 33.2802 92.5015 33.0602L94.8115 27.5702L89.0815 14.0402C88.9815 13.7802 88.9315 13.6102 88.9315 13.5302C88.9315 13.3502 88.9915 13.2002 89.1115 13.0802C89.2315 12.9602 89.3815 12.9002 89.5615 12.9002H91.0315C91.3515 12.9002 91.5915 13.0702 91.7515 13.4102L96.3115 24.3302L100.992 13.4102C101.152 13.0702 101.402 12.9002 101.742 12.9002H103.152C103.332 12.9002 103.482 12.9602 103.602 13.0802C103.722 13.2002 103.782 13.3402 103.782 13.5002C103.782 13.5602 103.732 13.7402 103.632 14.0402L95.1115 33.6902C94.9515 34.0302 94.7015 34.2002 94.3615 34.2002H92.9515Z" fill="#1E272F"/>
<path d="M105.711 20.7602C105.511 20.7602 105.341 20.7002 105.201 20.5802C105.081 20.4402 105.021 20.2702 105.021 20.0702V18.9302C105.021 18.7302 105.081 18.5702 105.201 18.4502C105.341 18.3102 105.511 18.2402 105.711 18.2402H114.711C114.911 18.2402 115.071 18.3102 115.191 18.4502C115.331 18.5702 115.401 18.7302 115.401 18.9302V20.0702C115.401 20.2702 115.331 20.4402 115.191 20.5802C115.071 20.7002 114.911 20.7602 114.711 20.7602H105.711Z" fill="#1E272F"/>
<path d="M122.539 28.5002C122.339 28.5002 122.169 28.4402 122.029 28.3202C121.909 28.1802 121.849 28.0102 121.849 27.8102V10.1702H116.089C115.889 10.1702 115.719 10.1102 115.579 9.9902C115.459 9.8502 115.399 9.6802 115.399 9.4802V8.22019C115.399 8.02019 115.459 7.8502 115.579 7.7102C115.719 7.5702 115.889 7.50019 116.089 7.50019H130.549C130.769 7.50019 130.939 7.5702 131.059 7.7102C131.199 7.8302 131.269 8.0002 131.269 8.22019V9.4802C131.269 9.6802 131.199 9.8502 131.059 9.9902C130.919 10.1102 130.749 10.1702 130.549 10.1702H124.819V27.8102C124.819 28.0102 124.749 28.1802 124.609 28.3202C124.469 28.4402 124.299 28.5002 124.099 28.5002H122.539Z" fill="#1E272F"/>
<path d="M131.6 28.5002C131.4 28.5002 131.23 28.4402 131.09 28.3202C130.97 28.1802 130.91 28.0102 130.91 27.8102V13.6202C130.91 13.4202 130.97 13.2502 131.09 13.1102C131.23 12.9702 131.4 12.9002 131.6 12.9002H132.98C133.18 12.9002 133.35 12.9702 133.49 13.1102C133.63 13.2502 133.7 13.4202 133.7 13.6202V14.9402C134.52 13.5802 135.92 12.9002 137.9 12.9002H139.07C139.27 12.9002 139.43 12.9702 139.55 13.1102C139.69 13.2302 139.76 13.3902 139.76 13.5902V14.8202C139.76 15.0202 139.69 15.1802 139.55 15.3002C139.43 15.4202 139.27 15.4802 139.07 15.4802H137.27C136.19 15.4802 135.34 15.8002 134.72 16.4402C134.1 17.0602 133.79 17.9102 133.79 18.9902V27.8102C133.79 28.0102 133.72 28.1802 133.58 28.3202C133.44 28.4402 133.27 28.5002 133.07 28.5002H131.6Z" fill="#1E272F"/>
<path d="M145.522 28.8002C144.542 28.8002 143.632 28.6002 142.792 28.2002C141.952 27.8002 141.282 27.2602 140.782 26.5802C140.302 25.8802 140.062 25.1102 140.062 24.2702C140.062 22.9502 140.602 21.8702 141.682 21.0302C142.782 20.1702 144.262 19.6102 146.122 19.3502L150.592 18.7202V17.8502C150.592 15.8102 149.422 14.7902 147.082 14.7902C146.202 14.7902 145.482 14.9802 144.922 15.3602C144.362 15.7202 143.942 16.1502 143.662 16.6502C143.602 16.8302 143.522 16.9602 143.422 17.0402C143.342 17.1202 143.222 17.1602 143.062 17.1602H141.772C141.592 17.1602 141.432 17.1002 141.292 16.9802C141.172 16.8402 141.112 16.6802 141.112 16.5002C141.132 16.0202 141.352 15.4802 141.772 14.8802C142.212 14.2602 142.882 13.7302 143.782 13.2902C144.682 12.8302 145.792 12.6002 147.112 12.6002C149.352 12.6002 150.962 13.1302 151.942 14.1902C152.922 15.2302 153.412 16.5302 153.412 18.0902V27.8102C153.412 28.0102 153.342 28.1802 153.202 28.3202C153.082 28.4402 152.922 28.5002 152.722 28.5002H151.342C151.142 28.5002 150.972 28.4402 150.832 28.3202C150.712 28.1802 150.652 28.0102 150.652 27.8102V26.5202C150.212 27.1602 149.572 27.7002 148.732 28.1402C147.892 28.5802 146.822 28.8002 145.522 28.8002ZM146.152 26.5502C147.452 26.5502 148.512 26.1302 149.332 25.2902C150.172 24.4302 150.592 23.2002 150.592 21.6002V20.7602L147.112 21.2702C145.692 21.4702 144.622 21.8102 143.902 22.2902C143.182 22.7502 142.822 23.3402 142.822 24.0602C142.822 24.8602 143.152 25.4802 143.812 25.9202C144.472 26.3402 145.252 26.5502 146.152 26.5502Z" fill="#1E272F"/>
<path d="M161.962 28.5002C161.442 28.5002 161.072 28.2502 160.852 27.7502L155.302 13.8302L155.242 13.5302C155.242 13.3502 155.302 13.2002 155.422 13.0802C155.542 12.9602 155.692 12.9002 155.872 12.9002H157.312C157.652 12.9002 157.902 13.0702 158.062 13.4102L162.622 25.2302L167.182 13.4102C167.362 13.0702 167.602 12.9002 167.902 12.9002H169.372C169.532 12.9002 169.672 12.9602 169.792 13.0802C169.932 13.2002 170.002 13.3502 170.002 13.5302L169.942 13.8302L164.362 27.7502C164.142 28.2502 163.772 28.5002 163.252 28.5002H161.962Z" fill="#1E272F"/>
<path d="M177.927 28.8002C175.867 28.8002 174.217 28.1702 172.977 26.9102C171.757 25.6302 171.087 23.8902 170.967 21.6902L170.937 20.6702L170.967 19.6802C171.107 17.5202 171.787 15.8002 173.007 14.5202C174.247 13.2402 175.877 12.6002 177.897 12.6002C180.117 12.6002 181.837 13.3102 183.057 14.7302C184.277 16.1302 184.887 18.0302 184.887 20.4302V20.9402C184.887 21.1402 184.817 21.3102 184.677 21.4502C184.557 21.5702 184.397 21.6302 184.197 21.6302H173.817V21.9002C173.877 23.2002 174.267 24.3102 174.987 25.2302C175.727 26.1302 176.697 26.5802 177.897 26.5802C178.817 26.5802 179.567 26.4002 180.147 26.0402C180.747 25.6602 181.187 25.2702 181.467 24.8702C181.647 24.6302 181.777 24.4902 181.857 24.4502C181.957 24.3902 182.127 24.3602 182.367 24.3602H183.837C184.017 24.3602 184.167 24.4102 184.287 24.5102C184.407 24.6102 184.467 24.7502 184.467 24.9302C184.467 25.3702 184.187 25.9002 183.627 26.5202C183.087 27.1402 182.317 27.6802 181.317 28.1402C180.337 28.5802 179.207 28.8002 177.927 28.8002ZM182.037 19.5602V19.4702C182.037 18.0902 181.657 16.9702 180.897 16.1102C180.157 15.2302 179.157 14.7902 177.897 14.7902C176.637 14.7902 175.637 15.2302 174.897 16.1102C174.177 16.9702 173.817 18.0902 173.817 19.4702V19.5602H182.037Z" fill="#1E272F"/>
<path d="M188.294 28.5002C188.094 28.5002 187.924 28.4402 187.784 28.3202C187.664 28.1802 187.604 28.0102 187.604 27.8102V7.8902C187.604 7.6902 187.664 7.5302 187.784 7.4102C187.924 7.2702 188.094 7.2002 188.294 7.2002H189.704C189.904 7.2002 190.064 7.2702 190.184 7.4102C190.324 7.5302 190.394 7.6902 190.394 7.8902V27.8102C190.394 28.0102 190.324 28.1802 190.184 28.3202C190.064 28.4402 189.904 28.5002 189.704 28.5002H188.294Z" fill="#1E272F"/>
<defs>
<linearGradient id="paint0_linear_491_5114" x1="1.7998" y1="18.9002" x2="16.2091" y2="19.6118" gradientUnits="userSpaceOnUse">
<stop stop-color="#1C70BB"/>
<stop offset="1" stop-color="#00AFFF"/>
</linearGradient>
<linearGradient id="paint1_linear_491_5114" x1="18" y1="18.9002" x2="32.4093" y2="19.6118" gradientUnits="userSpaceOnUse">
<stop stop-color="#00AFFF"/>
<stop offset="1" stop-color="#1C70BB"/>
</linearGradient>
<linearGradient id="paint2_linear_491_5114" x1="0" y1="25.2002" x2="16.2" y2="36.0002" gradientUnits="userSpaceOnUse">
<stop stop-color="#1C70BB"/>
<stop offset="1" stop-color="#00B5FE"/>
</linearGradient>
<linearGradient id="paint3_linear_491_5114" x1="3.51054e-07" y1="12.6" x2="16.2" y2="-7.12839e-06" gradientUnits="userSpaceOnUse">
<stop stop-color="#1C70BB"/>
<stop offset="1" stop-color="#00B5FE"/>
</linearGradient>
<linearGradient id="paint4_linear_491_5114" x1="1.8" y1="32.4004" x2="2.7" y2="5.4004" gradientUnits="userSpaceOnUse">
<stop stop-color="#02B5FF"/>
<stop offset="0.5" stop-color="#1F7FFF"/>
<stop offset="1" stop-color="#02B5FF"/>
</linearGradient>
<linearGradient id="paint5_linear_491_5114" x1="26.1002" y1="0" x2="26.1002" y2="36" gradientUnits="userSpaceOnUse">
<stop stop-color="#02B5FF"/>
<stop offset="0.515625" stop-color="#026EFE"/>
<stop offset="1" stop-color="#02B5FF"/>
</linearGradient>
</defs>
</svg>
