<svg width="191" height="36" viewBox="0 0 191 36" fill="none" xmlns="http://www.w3.org/2000/svg">
<rect x="1.80078" y="16.2002" width="14.4" height="5.4" fill="url(#paint0_linear_915_1730)"/>
<rect x="18" y="16.2002" width="14.4" height="5.4" fill="url(#paint1_linear_915_1730)"/>
<path d="M0 30.6002L16.2 36.0002V30.6002L0 25.2002V27.0002V30.6002Z" fill="url(#paint2_linear_915_1730)"/>
<path d="M0 7.2L16.2 0V5.4L0 12.6V7.2Z" fill="url(#paint3_linear_915_1730)"/>
<path d="M0 30.6037L0 7.20371L5.4 4.80274L5.4 32.4004L0 30.6037Z" fill="url(#paint4_linear_915_1730)"/>
<path d="M17.9993 0C22.3648 0.536889 26.7799 2.78725 29.6913 6.08417C32.6028 9.38109 34.2064 13.63 34.1992 18.0284C34.192 22.4269 32.5746 26.6705 29.6523 29.9579C26.7301 33.2453 22.3666 35.4774 17.9993 36V30.6C21.0561 30.2342 23.5701 28.6703 25.6154 26.3693C27.6608 24.0684 28.7929 21.0982 28.7979 18.0196C28.8029 14.941 27.6806 11.9671 25.6427 9.65949C23.6049 7.35188 21.0548 5.77578 17.9993 5.4V0Z" fill="url(#paint5_linear_915_1730)"/>
<path d="M44.4908 28.5002C44.2908 28.5002 44.1208 28.4402 43.9808 28.3202C43.8608 28.1802 43.8008 28.0102 43.8008 27.8102V8.22019C43.8008 8.0002 43.8608 7.8302 43.9808 7.7102C44.1208 7.5702 44.2908 7.50019 44.4908 7.50019H56.8808C57.0808 7.50019 57.2408 7.5702 57.3608 7.7102C57.5008 7.8302 57.5708 8.0002 57.5708 8.22019V9.3602C57.5708 9.5602 57.5108 9.7302 57.3908 9.87019C57.2708 9.9902 57.1008 10.0502 56.8808 10.0502H46.6808V16.6202H56.2208C56.4208 16.6202 56.5808 16.6902 56.7008 16.8302C56.8408 16.9502 56.9108 17.1202 56.9108 17.3402V18.4502C56.9108 18.6502 56.8408 18.8202 56.7008 18.9602C56.5808 19.0802 56.4208 19.1402 56.2208 19.1402H46.6808V25.9502H57.1208C57.3408 25.9502 57.5108 26.0102 57.6308 26.1302C57.7508 26.2502 57.8108 26.4202 57.8108 26.6402V27.8102C57.8108 28.0102 57.7408 28.1802 57.6008 28.3202C57.4808 28.4402 57.3208 28.5002 57.1208 28.5002H44.4908Z" fill="#1E272F"/>
<path d="M65.0541 28.8002C64.0741 28.8002 63.1641 28.6002 62.3241 28.2002C61.4841 27.8002 60.8141 27.2602 60.3141 26.5802C59.8341 25.8802 59.5941 25.1102 59.5941 24.2702C59.5941 22.9502 60.1341 21.8702 61.2141 21.0302C62.3141 20.1702 63.7941 19.6102 65.6541 19.3502L70.1241 18.7202V17.8502C70.1241 15.8102 68.9541 14.7902 66.6141 14.7902C65.7341 14.7902 65.0141 14.9802 64.4541 15.3602C63.8941 15.7202 63.4741 16.1502 63.1941 16.6502C63.1341 16.8302 63.0541 16.9602 62.9541 17.0402C62.8741 17.1202 62.7541 17.1602 62.5941 17.1602H61.3041C61.1241 17.1602 60.9641 17.1002 60.8241 16.9802C60.7041 16.8402 60.6441 16.6802 60.6441 16.5002C60.6641 16.0202 60.8841 15.4802 61.3041 14.8802C61.7441 14.2602 62.4141 13.7302 63.3141 13.2902C64.2141 12.8302 65.3241 12.6002 66.6441 12.6002C68.8841 12.6002 70.4941 13.1302 71.4741 14.1902C72.4541 15.2302 72.9441 16.5302 72.9441 18.0902V27.8102C72.9441 28.0102 72.8741 28.1802 72.7341 28.3202C72.6141 28.4402 72.4541 28.5002 72.2541 28.5002H70.8741C70.6741 28.5002 70.5041 28.4402 70.3641 28.3202C70.2441 28.1802 70.1841 28.0102 70.1841 27.8102V26.5202C69.7441 27.1602 69.1041 27.7002 68.2641 28.1402C67.4241 28.5802 66.3541 28.8002 65.0541 28.8002ZM65.6841 26.5502C66.9841 26.5502 68.0441 26.1302 68.8641 25.2902C69.7041 24.4302 70.1241 23.2002 70.1241 21.6002V20.7602L66.6441 21.2702C65.2241 21.4702 64.1541 21.8102 63.4341 22.2902C62.7141 22.7502 62.3541 23.3402 62.3541 24.0602C62.3541 24.8602 62.6841 25.4802 63.3441 25.9202C64.0041 26.3402 64.7841 26.5502 65.6841 26.5502Z" fill="#1E272F"/>
<path d="M81.7569 28.8002C80.3569 28.8002 79.1769 28.5802 78.2169 28.1402C77.2769 27.6802 76.5669 27.1602 76.0869 26.5802C75.6269 26.0002 75.3969 25.5202 75.3969 25.1402C75.3969 24.9402 75.4669 24.7902 75.6069 24.6902C75.7669 24.5702 75.9269 24.5102 76.0869 24.5102H77.4369C77.6369 24.5102 77.8169 24.6102 77.9769 24.8102C78.4569 25.3702 78.9769 25.8102 79.5369 26.1302C80.0969 26.4502 80.8469 26.6102 81.7869 26.6102C82.8269 26.6102 83.6669 26.4102 84.3069 26.0102C84.9669 25.5902 85.2969 25.0202 85.2969 24.3002C85.2969 23.8202 85.1569 23.4302 84.8769 23.1302C84.6169 22.8102 84.1569 22.5402 83.4969 22.3202C82.8569 22.0802 81.8969 21.8202 80.6169 21.5402C78.8769 21.1602 77.6369 20.6102 76.8969 19.8902C76.1769 19.1702 75.8169 18.2402 75.8169 17.1002C75.8169 16.3402 76.0369 15.6202 76.4769 14.9402C76.9369 14.2402 77.5969 13.6802 78.4569 13.2602C79.3369 12.8202 80.3869 12.6002 81.6069 12.6002C82.8869 12.6002 83.9769 12.8102 84.8769 13.2302C85.7769 13.6502 86.4469 14.1502 86.8869 14.7302C87.3469 15.2902 87.5769 15.7602 87.5769 16.1402C87.5769 16.3202 87.5069 16.4702 87.3669 16.5902C87.2469 16.7102 87.0969 16.7702 86.9169 16.7702H85.6569C85.4169 16.7702 85.2169 16.6702 85.0569 16.4702C84.7369 16.0902 84.4569 15.8002 84.2169 15.6002C83.9969 15.3802 83.6669 15.1902 83.2269 15.0302C82.8069 14.8702 82.2669 14.7902 81.6069 14.7902C80.6469 14.7902 79.9069 15.0002 79.3869 15.4202C78.8669 15.8202 78.6069 16.3502 78.6069 17.0102C78.6069 17.4302 78.7169 17.7902 78.9369 18.0902C79.1569 18.3702 79.5769 18.6302 80.1969 18.8702C80.8369 19.1102 81.7569 19.3602 82.9569 19.6202C84.8569 20.0202 86.1969 20.6002 86.9769 21.3602C87.7769 22.1002 88.1769 23.0502 88.1769 24.2102C88.1769 25.0702 87.9269 25.8502 87.4269 26.5502C86.9269 27.2502 86.1869 27.8002 85.2069 28.2002C84.2469 28.6002 83.0969 28.8002 81.7569 28.8002Z" fill="#1E272F"/>
<path d="M92.9525 34.2002C92.7925 34.2002 92.6525 34.1402 92.5325 34.0202C92.4125 33.9002 92.3525 33.7602 92.3525 33.6002C92.3525 33.4602 92.4025 33.2802 92.5025 33.0602L94.8125 27.5702L89.0825 14.0402C88.9825 13.7802 88.9325 13.6102 88.9325 13.5302C88.9325 13.3502 88.9925 13.2002 89.1125 13.0802C89.2325 12.9602 89.3825 12.9002 89.5625 12.9002H91.0325C91.3525 12.9002 91.5925 13.0702 91.7525 13.4102L96.3125 24.3302L100.993 13.4102C101.153 13.0702 101.403 12.9002 101.743 12.9002H103.153C103.333 12.9002 103.483 12.9602 103.603 13.0802C103.723 13.2002 103.783 13.3402 103.783 13.5002C103.783 13.5602 103.733 13.7402 103.633 14.0402L95.1125 33.6902C94.9525 34.0302 94.7025 34.2002 94.3625 34.2002H92.9525Z" fill="#1E272F"/>
<path d="M105.712 20.7602C105.512 20.7602 105.342 20.7002 105.202 20.5802C105.082 20.4402 105.022 20.2702 105.022 20.0702V18.9302C105.022 18.7302 105.082 18.5702 105.202 18.4502C105.342 18.3102 105.512 18.2402 105.712 18.2402H114.712C114.912 18.2402 115.072 18.3102 115.192 18.4502C115.332 18.5702 115.402 18.7302 115.402 18.9302V20.0702C115.402 20.2702 115.332 20.4402 115.192 20.5802C115.072 20.7002 114.912 20.7602 114.712 20.7602H105.712Z" fill="#1E272F"/>
<path d="M122.54 28.5002C122.34 28.5002 122.17 28.4402 122.03 28.3202C121.91 28.1802 121.85 28.0102 121.85 27.8102V10.1702H116.09C115.89 10.1702 115.72 10.1102 115.58 9.9902C115.46 9.8502 115.4 9.6802 115.4 9.4802V8.22019C115.4 8.02019 115.46 7.8502 115.58 7.7102C115.72 7.5702 115.89 7.50019 116.09 7.50019H130.55C130.77 7.50019 130.94 7.5702 131.06 7.7102C131.2 7.8302 131.27 8.0002 131.27 8.22019V9.4802C131.27 9.6802 131.2 9.8502 131.06 9.9902C130.92 10.1102 130.75 10.1702 130.55 10.1702H124.82V27.8102C124.82 28.0102 124.75 28.1802 124.61 28.3202C124.47 28.4402 124.3 28.5002 124.1 28.5002H122.54Z" fill="#1E272F"/>
<path d="M131.601 28.5002C131.401 28.5002 131.231 28.4402 131.091 28.3202C130.971 28.1802 130.911 28.0102 130.911 27.8102V13.6202C130.911 13.4202 130.971 13.2502 131.091 13.1102C131.231 12.9702 131.401 12.9002 131.601 12.9002H132.981C133.181 12.9002 133.351 12.9702 133.491 13.1102C133.631 13.2502 133.701 13.4202 133.701 13.6202V14.9402C134.521 13.5802 135.921 12.9002 137.901 12.9002H139.071C139.271 12.9002 139.431 12.9702 139.551 13.1102C139.691 13.2302 139.761 13.3902 139.761 13.5902V14.8202C139.761 15.0202 139.691 15.1802 139.551 15.3002C139.431 15.4202 139.271 15.4802 139.071 15.4802H137.271C136.191 15.4802 135.341 15.8002 134.721 16.4402C134.101 17.0602 133.791 17.9102 133.791 18.9902V27.8102C133.791 28.0102 133.721 28.1802 133.581 28.3202C133.441 28.4402 133.271 28.5002 133.071 28.5002H131.601Z" fill="#1E272F"/>
<path d="M145.523 28.8002C144.543 28.8002 143.633 28.6002 142.793 28.2002C141.953 27.8002 141.283 27.2602 140.783 26.5802C140.303 25.8802 140.063 25.1102 140.063 24.2702C140.063 22.9502 140.603 21.8702 141.683 21.0302C142.783 20.1702 144.263 19.6102 146.123 19.3502L150.593 18.7202V17.8502C150.593 15.8102 149.423 14.7902 147.083 14.7902C146.203 14.7902 145.483 14.9802 144.923 15.3602C144.363 15.7202 143.943 16.1502 143.663 16.6502C143.603 16.8302 143.523 16.9602 143.423 17.0402C143.343 17.1202 143.223 17.1602 143.063 17.1602H141.773C141.593 17.1602 141.433 17.1002 141.293 16.9802C141.173 16.8402 141.113 16.6802 141.113 16.5002C141.133 16.0202 141.353 15.4802 141.773 14.8802C142.213 14.2602 142.883 13.7302 143.783 13.2902C144.683 12.8302 145.793 12.6002 147.113 12.6002C149.353 12.6002 150.963 13.1302 151.943 14.1902C152.923 15.2302 153.413 16.5302 153.413 18.0902V27.8102C153.413 28.0102 153.343 28.1802 153.203 28.3202C153.083 28.4402 152.923 28.5002 152.723 28.5002H151.343C151.143 28.5002 150.973 28.4402 150.833 28.3202C150.713 28.1802 150.653 28.0102 150.653 27.8102V26.5202C150.213 27.1602 149.573 27.7002 148.733 28.1402C147.893 28.5802 146.823 28.8002 145.523 28.8002ZM146.153 26.5502C147.453 26.5502 148.513 26.1302 149.333 25.2902C150.173 24.4302 150.593 23.2002 150.593 21.6002V20.7602L147.113 21.2702C145.693 21.4702 144.623 21.8102 143.903 22.2902C143.183 22.7502 142.823 23.3402 142.823 24.0602C142.823 24.8602 143.153 25.4802 143.813 25.9202C144.473 26.3402 145.253 26.5502 146.153 26.5502Z" fill="#1E272F"/>
<path d="M161.963 28.5002C161.443 28.5002 161.073 28.2502 160.853 27.7502L155.303 13.8302L155.243 13.5302C155.243 13.3502 155.303 13.2002 155.423 13.0802C155.543 12.9602 155.693 12.9002 155.873 12.9002H157.313C157.653 12.9002 157.903 13.0702 158.063 13.4102L162.623 25.2302L167.183 13.4102C167.363 13.0702 167.603 12.9002 167.903 12.9002H169.373C169.533 12.9002 169.673 12.9602 169.793 13.0802C169.933 13.2002 170.003 13.3502 170.003 13.5302L169.943 13.8302L164.363 27.7502C164.143 28.2502 163.773 28.5002 163.253 28.5002H161.963Z" fill="#1E272F"/>
<path d="M177.928 28.8002C175.868 28.8002 174.218 28.1702 172.978 26.9102C171.758 25.6302 171.088 23.8902 170.968 21.6902L170.938 20.6702L170.968 19.6802C171.108 17.5202 171.788 15.8002 173.008 14.5202C174.248 13.2402 175.878 12.6002 177.898 12.6002C180.118 12.6002 181.838 13.3102 183.058 14.7302C184.278 16.1302 184.888 18.0302 184.888 20.4302V20.9402C184.888 21.1402 184.818 21.3102 184.678 21.4502C184.558 21.5702 184.398 21.6302 184.198 21.6302H173.818V21.9002C173.878 23.2002 174.268 24.3102 174.988 25.2302C175.728 26.1302 176.698 26.5802 177.898 26.5802C178.818 26.5802 179.568 26.4002 180.148 26.0402C180.748 25.6602 181.188 25.2702 181.468 24.8702C181.648 24.6302 181.778 24.4902 181.858 24.4502C181.958 24.3902 182.128 24.3602 182.368 24.3602H183.838C184.018 24.3602 184.168 24.4102 184.288 24.5102C184.408 24.6102 184.468 24.7502 184.468 24.9302C184.468 25.3702 184.188 25.9002 183.628 26.5202C183.088 27.1402 182.318 27.6802 181.318 28.1402C180.338 28.5802 179.208 28.8002 177.928 28.8002ZM182.038 19.5602V19.4702C182.038 18.0902 181.658 16.9702 180.898 16.1102C180.158 15.2302 179.158 14.7902 177.898 14.7902C176.638 14.7902 175.638 15.2302 174.898 16.1102C174.178 16.9702 173.818 18.0902 173.818 19.4702V19.5602H182.038Z" fill="#1E272F"/>
<path d="M188.295 28.5002C188.095 28.5002 187.925 28.4402 187.785 28.3202C187.665 28.1802 187.605 28.0102 187.605 27.8102V7.8902C187.605 7.6902 187.665 7.5302 187.785 7.4102C187.925 7.2702 188.095 7.2002 188.295 7.2002H189.705C189.905 7.2002 190.065 7.2702 190.185 7.4102C190.325 7.5302 190.395 7.6902 190.395 7.8902V27.8102C190.395 28.0102 190.325 28.1802 190.185 28.3202C190.065 28.4402 189.905 28.5002 189.705 28.5002H188.295Z" fill="#1E272F"/>
<defs>
<linearGradient id="paint0_linear_915_1730" x1="1.80078" y1="18.9002" x2="16.2101" y2="19.6118" gradientUnits="userSpaceOnUse">
<stop stop-color="#1C70BB"/>
<stop offset="1" stop-color="#00AFFF"/>
</linearGradient>
<linearGradient id="paint1_linear_915_1730" x1="18" y1="18.9002" x2="32.4093" y2="19.6118" gradientUnits="userSpaceOnUse">
<stop stop-color="#00AFFF"/>
<stop offset="1" stop-color="#1C70BB"/>
</linearGradient>
<linearGradient id="paint2_linear_915_1730" x1="0" y1="25.2002" x2="16.2" y2="36.0002" gradientUnits="userSpaceOnUse">
<stop stop-color="#1C70BB"/>
<stop offset="1" stop-color="#00B5FE"/>
</linearGradient>
<linearGradient id="paint3_linear_915_1730" x1="3.51054e-07" y1="12.6" x2="16.2" y2="-7.12839e-06" gradientUnits="userSpaceOnUse">
<stop stop-color="#1C70BB"/>
<stop offset="1" stop-color="#00B5FE"/>
</linearGradient>
<linearGradient id="paint4_linear_915_1730" x1="1.8" y1="32.4004" x2="2.7" y2="5.4004" gradientUnits="userSpaceOnUse">
<stop stop-color="#02B5FF"/>
<stop offset="0.5" stop-color="#1F7FFF"/>
<stop offset="1" stop-color="#02B5FF"/>
</linearGradient>
<linearGradient id="paint5_linear_915_1730" x1="26.0992" y1="0" x2="26.0992" y2="36" gradientUnits="userSpaceOnUse">
<stop stop-color="#02B5FF"/>
<stop offset="0.515625" stop-color="#026EFE"/>
<stop offset="1" stop-color="#02B5FF"/>
</linearGradient>
</defs>
</svg>
