<svg width="18" height="18" viewBox="0 0 18 18" fill="none" xmlns="http://www.w3.org/2000/svg">
<path d="M7.85861 8.72375L4.47611 3.41975L5.92436 3.03125L11.1376 7.84625L15.0841 6.78875C15.3723 6.71157 15.6794 6.75205 15.9378 6.90128C16.1962 7.05052 16.3847 7.29628 16.4619 7.5845C16.539 7.87272 16.4986 8.1798 16.3493 8.43818C16.2001 8.69656 15.9543 8.88507 15.6661 8.96225L4.43711 11.9698L3.85511 9.79625L4.03586 9.7475L5.88611 11.5813L3.91661 12.1093C3.75511 12.1526 3.58377 12.1406 3.42981 12.0754C3.27585 12.0102 3.1481 11.8954 3.06686 11.7493L1.09961 8.20475L2.18636 7.91375L4.03586 9.7475L7.85861 8.723V8.72375ZM3.00011 14.2498H15.0001V15.7498H3.00011V14.2498Z" fill="#4B5259"/>
</svg>
