<svg width="12" height="16" viewBox="0 0 12 16" fill="none" xmlns="http://www.w3.org/2000/svg">
<path fill-rule="evenodd" clip-rule="evenodd" d="M3.39872 1.20258C5.03736 0.250456 7.05152 0.267097 8.67479 1.24617C10.2821 2.24519 11.259 4.02813 11.2499 5.94608C11.2125 7.85145 10.165 9.6425 8.8556 11.0271C8.09988 11.8298 7.25446 12.5396 6.33663 13.142C6.24211 13.1967 6.13856 13.2333 6.03111 13.25C5.9277 13.2456 5.82699 13.215 5.73806 13.1611C4.33682 12.2559 3.1075 11.1005 2.10925 9.75047C1.27394 8.62352 0.799377 7.26201 0.750001 5.85081C0.748916 3.92918 1.76007 2.1547 3.39872 1.20258ZM4.34563 6.64609C4.62127 7.32563 5.27189 7.76888 5.99371 7.76889C6.46658 7.77228 6.92114 7.58287 7.25611 7.24286C7.59108 6.90284 7.77862 6.44048 7.77694 5.95879C7.77946 5.22353 7.3466 4.55924 6.68045 4.27608C6.01431 3.99293 5.24629 4.14676 4.73499 4.66576C4.2237 5.18476 4.06998 5.96654 4.34563 6.64609Z" fill="#787D82"/>
<ellipse opacity="0.4" cx="6" cy="14.75" rx="3.75" ry="0.75" fill="#787D82"/>
</svg>
