<svg width="581" height="476" viewBox="0 0 581 476" fill="none" xmlns="http://www.w3.org/2000/svg">
<g clip-path="url(#clip0_490_5417)">
<path d="M502.864 110.111C518.38 110.118 525.045 132.584 540.229 135.777C547.011 137.203 553.93 134.364 560.859 134.241C567.788 134.119 576.075 139.15 574.611 145.923L442.517 143.932C456.17 142.514 468.942 136.515 478.75 126.911C485.909 119.791 492.767 110.107 502.864 110.111Z" fill="#F0F0F0"/>
<path d="M199.886 345.826C219.188 345.824 237.864 338.977 252.593 326.502C267.323 314.027 277.151 296.733 280.33 277.695L280.356 277.538L280.254 277.415C275.036 271.167 270.819 264.148 267.752 256.608C271.402 261.287 275.811 265.32 280.796 268.539L281.307 268.88L281.337 268.266C281.402 266.915 281.435 265.572 281.435 264.276C281.48 250.409 277.969 236.762 271.235 224.64C264.502 212.517 254.773 202.323 242.977 195.033C263.62 173.611 275.128 145.003 275.068 115.253C275.068 51.7024 223.356 0.00011512 159.794 0.00011512C135.559 -0.0341522 111.932 7.58254 92.2804 21.7646C72.6287 35.9466 57.9551 55.9701 50.3512 78.9812L50.2485 79.291L50.551 79.4135C58.3991 82.591 65.6223 84.1178 72.5308 84.0433C64.6573 86.2728 56.4842 87.261 48.3062 86.9722L48.0249 86.9627L47.9568 87.2358C45.6718 96.3996 44.5175 105.809 44.5196 115.253C44.5196 115.594 44.521 115.934 44.524 116.275C44.546 123.618 43.0203 130.884 40.0464 137.598C37.0724 144.313 32.7169 150.325 27.2637 155.243C18.552 163.169 11.6607 172.889 7.06396 183.732C2.46725 194.576 0.274292 206.287 0.635834 218.059C0.997406 229.832 3.90494 241.386 9.15842 251.927C14.4119 262.469 21.8867 271.747 31.0684 279.123L31.2354 279.257L31.4306 279.169C43.487 273.698 51.8835 267.592 57.6024 260.095C53.7356 269.535 48.0979 278.148 40.9935 285.469L40.6841 285.788L41.0678 286.013C53.2549 293.112 67.0737 296.931 81.1767 297.099C95.2797 297.267 109.186 293.777 121.538 286.97C126.499 303.92 136.81 318.811 150.931 329.419C165.052 340.027 182.225 345.782 199.886 345.826Z" fill="#498DC9"/>
<path d="M228.94 475.724C229.296 475.723 229.641 475.595 229.91 475.361C230.179 475.127 230.355 474.804 230.405 474.451C230.468 474.009 236.634 429.54 231.096 370.439C225.982 315.858 209.559 237.242 160.362 172.675C160.244 172.521 160.097 172.39 159.929 172.292C159.761 172.194 159.575 172.13 159.382 172.104C159.189 172.078 158.993 172.09 158.805 172.14C158.616 172.19 158.44 172.276 158.285 172.394C158.13 172.512 158 172.659 157.902 172.828C157.804 172.996 157.74 173.182 157.715 173.375C157.689 173.568 157.701 173.764 157.751 173.952C157.801 174.14 157.887 174.317 158.005 174.472C206.777 238.48 223.068 316.52 228.146 370.715C233.651 429.472 227.534 473.594 227.471 474.033C227.441 474.244 227.457 474.458 227.517 474.661C227.578 474.865 227.681 475.053 227.82 475.214C227.959 475.374 228.131 475.502 228.324 475.59C228.518 475.678 228.728 475.724 228.94 475.724L228.94 475.724Z" fill="#4B5259"/>
<path d="M204.346 258.049C204.659 258.049 204.964 257.95 205.218 257.767C205.471 257.583 205.66 257.324 205.756 257.026C205.853 256.728 205.853 256.408 205.757 256.11C205.66 255.812 205.472 255.553 205.219 255.369C205.04 255.239 187.042 242.271 160.136 232.419C135.263 223.313 97.4408 215.057 58.503 227.45C58.3174 227.509 58.1452 227.604 57.9963 227.729C57.8474 227.855 57.7247 228.008 57.6352 228.181C57.5457 228.354 57.4911 228.543 57.4746 228.737C57.4581 228.931 57.48 229.126 57.539 229.312C57.5981 229.497 57.6931 229.669 57.8187 229.818C57.9443 229.967 58.0979 230.089 58.2709 230.179C58.4439 230.268 58.6328 230.322 58.8268 230.339C59.0208 230.355 59.2161 230.333 59.4015 230.274C97.5416 218.136 134.679 226.255 159.117 235.202C185.639 244.913 203.301 257.639 203.476 257.766C203.729 257.95 204.034 258.049 204.346 258.049Z" fill="#4B5259"/>
<path d="M503.219 435.346L498.212 436.913L464.617 329.559C465.991 329.209 467.447 329.399 468.685 330.089C469.923 330.779 470.85 331.918 471.275 333.27L503.219 435.346Z" fill="#4B5259"/>
<path d="M392.808 295.31H414.955V230.211H392.808C388.571 230.216 384.509 231.901 381.513 234.897C378.516 237.893 376.831 241.956 376.826 246.193V279.328C376.831 283.565 378.516 287.627 381.513 290.623C384.509 293.62 388.571 295.305 392.808 295.31Z" fill="#1E272F"/>
<path d="M395.891 260.434C396.63 260.433 397.34 260.139 397.863 259.616C398.386 259.093 398.68 258.384 398.681 257.644V233.465H393.101V257.644C393.102 258.384 393.396 259.093 393.919 259.616C394.442 260.139 395.151 260.433 395.891 260.434Z" fill="#4B5259"/>
<path d="M389.182 290.195H405.387C406.321 290.194 407.216 289.822 407.876 289.162C408.537 288.501 408.908 287.606 408.909 286.672V276.977C408.908 276.044 408.537 275.148 407.876 274.488C407.216 273.828 406.321 273.456 405.387 273.455H389.182C388.248 273.456 387.353 273.828 386.693 274.488C386.032 275.148 385.661 276.044 385.66 276.977V286.672C385.661 287.606 386.032 288.501 386.693 289.162C387.353 289.822 388.248 290.194 389.182 290.195Z" fill="#4B5259"/>
<path d="M436.432 223.436C436.813 223.437 437.182 223.305 437.477 223.064C437.66 222.915 437.809 222.73 437.917 222.521C438.025 222.311 438.088 222.082 438.103 221.847C438.625 213.504 437.176 205.156 433.873 197.478C431.634 192.295 429.059 188.955 425.768 186.967C421.378 184.316 415.354 184.104 409.242 186.386C405.748 187.69 403.229 189.395 401.54 191.598C399.286 194.537 398.579 198.307 398.15 201.944C397.504 207.446 397.353 212.995 397.697 218.524C397.713 218.81 397.804 219.087 397.961 219.325C398.119 219.564 398.337 219.757 398.593 219.884C398.87 220.02 399.178 220.08 399.486 220.06C399.794 220.04 400.091 219.939 400.349 219.769C400.452 219.701 400.559 219.638 400.669 219.581C401.226 219.302 401.841 219.16 402.464 219.168C403.087 219.176 403.699 219.333 404.249 219.627C404.652 219.865 405.033 220.139 405.389 220.445L407.586 222.224C407.858 222.439 408.188 222.566 408.534 222.588C408.88 222.61 409.224 222.526 409.52 222.346C411.114 221.441 412.895 220.915 414.725 220.809C417.155 220.719 419.588 220.895 421.979 221.336L436.184 223.418C436.266 223.43 436.349 223.436 436.432 223.436Z" fill="#1E272F"/>
<path d="M438.33 460.356H445.916L449.524 431.097H438.329L438.33 460.356Z" fill="#EFA6A9"/>
<path d="M434.247 474.76H439.63L440.591 469.678L443.051 474.76H457.328C458.012 474.76 458.678 474.541 459.23 474.136C459.781 473.73 460.188 473.159 460.392 472.506C460.595 471.853 460.585 471.151 460.362 470.504C460.139 469.857 459.714 469.299 459.151 468.91L447.751 461.036V455.898L435.759 456.614L434.247 474.76Z" fill="#1E272F"/>
<path d="M351.029 453.867L358.022 456.807L372.69 431.233L362.369 426.895L351.029 453.867Z" fill="#EFA6A9"/>
<path d="M341.684 465.562L346.646 467.649L349.502 463.336L349.801 468.975L362.961 474.509C363.592 474.774 364.291 474.831 364.956 474.67C365.621 474.51 366.218 474.142 366.659 473.618C367.1 473.095 367.362 472.444 367.407 471.762C367.452 471.079 367.278 470.399 366.909 469.823L359.452 458.145L361.443 453.409L350.112 449.421L341.684 465.562Z" fill="#1E272F"/>
<path d="M441.873 261.08L444.047 290.204L458.464 333.696L464.254 330.331L456.399 286.098L453.731 260.581L441.873 261.08Z" fill="#EFA6A9"/>
<path d="M461.828 340.039C458.476 340.039 455.76 337.322 455.76 333.971C455.76 330.62 458.476 327.903 461.828 327.903C465.179 327.903 467.896 330.62 467.896 333.971C467.896 337.322 465.179 340.039 461.828 340.039Z" fill="#EFA6A9"/>
<path d="M404.88 294.623V302.657C404.88 302.657 392.445 324.569 397.509 333.972L378.84 385.039C378.84 385.039 353.524 410.355 355.694 428.438L354.248 434.225L370.884 441.458L374.501 436.395L402.71 387.932L426.579 343.809L430.919 395.889C430.919 395.889 428.026 436.395 435.982 440.735L436.706 447.245H453.59V441.056C453.59 441.056 459.852 419.035 456.235 402.398L457.682 332.236C457.682 332.236 451.172 302.58 443.215 297.516L440.322 290.283L404.88 294.623Z" fill="#1E272F"/>
<path d="M391.594 238.937L407.36 231.555L411.911 223.624L427.214 224.492L431.845 232.051L445.466 234.811L443.464 284.043C444.356 285.587 444.674 287.396 444.362 289.151C443.884 292.237 441.457 289.81 443.884 292.237C446.311 294.664 448.14 293.444 446.922 295.571C445.704 297.698 448.7 301.014 448.7 301.014C448.7 301.014 409.952 320.75 399.006 295.571C399.006 295.571 396.848 288.206 400.494 272.776C404.14 257.347 391.594 238.937 391.594 238.937Z" fill="#E4E4E4"/>
<path d="M440.99 237.947L445.466 234.812C445.466 234.812 451.658 237.353 451.867 242.496C452.076 247.639 455.635 263.029 455.635 263.029L441.5 270.628L440.99 237.947Z" fill="#E4E4E4"/>
<path d="M387.87 263.507L390.044 292.63L414.17 328.842L419.959 325.476L402.396 288.525L399.728 263.008L387.87 263.507Z" fill="#EFA6A9"/>
<path d="M398.968 240.584L391.593 238.938C391.593 238.938 387.149 240.357 386.543 247.032C385.936 253.706 385.427 265.323 385.427 265.323L400.904 276.705L404.746 260.381L398.968 240.584Z" fill="#E4E4E4"/>
<path d="M418.14 335.185C414.789 335.185 412.072 332.468 412.072 329.117C412.072 325.766 414.789 323.049 418.14 323.049C421.491 323.049 424.208 325.766 424.208 329.117C424.208 332.468 421.491 335.185 418.14 335.185Z" fill="#EFA6A9"/>
<path d="M420.947 221.026C413.139 221.026 406.809 214.696 406.809 206.887C406.809 199.079 413.139 192.749 420.947 192.749C428.755 192.749 435.085 199.079 435.085 206.887C435.085 214.696 428.755 221.026 420.947 221.026Z" fill="#EFA6A9"/>
<path d="M432.462 204.756H432.462C434.263 204.755 436.066 204.753 437.872 204.749C438.087 204.748 438.3 204.704 438.498 204.619C438.696 204.535 438.875 204.412 439.025 204.257C439.172 204.106 439.287 203.926 439.363 203.729C439.439 203.532 439.474 203.322 439.467 203.111C439.334 200.115 438.478 197.196 436.972 194.602C435.466 192.009 433.354 189.818 430.818 188.218C428.152 186.592 425.109 185.685 421.987 185.586C418.866 185.487 415.772 186.2 413.008 187.655C410.244 189.109 407.904 191.256 406.218 193.885C404.532 196.514 403.556 199.535 403.386 202.654C403.374 202.864 403.404 203.075 403.475 203.274C403.545 203.473 403.655 203.656 403.796 203.812C403.938 203.969 404.109 204.095 404.301 204.185C404.492 204.274 404.699 204.325 404.909 204.333C411.166 204.598 418.107 204.726 427.414 204.75H427.419C427.735 204.751 428.045 204.658 428.308 204.481C428.571 204.304 428.775 204.053 428.894 203.76L429.044 203.393C429.123 203.2 429.261 203.037 429.438 202.928C429.615 202.818 429.823 202.768 430.031 202.783C430.239 202.799 430.436 202.88 430.595 203.016C430.754 203.151 430.865 203.333 430.914 203.535C430.997 203.883 431.195 204.193 431.476 204.415C431.756 204.636 432.104 204.756 432.462 204.756Z" fill="#1E272F"/>
<path d="M400.815 276.058C404.615 272.482 406.248 267.294 406.274 262.171C406.304 256.319 404.186 250.761 401.447 245.673C399.791 242.596 397.903 239.652 396.014 236.714C395.379 235.726 396.954 234.812 397.586 235.795C403.976 245.735 411.014 257.508 406.893 269.723C405.947 272.619 404.302 275.237 402.103 277.345C401.25 278.147 399.96 276.863 400.815 276.058H400.815Z" fill="#4B5259"/>
<path d="M503.122 384.683C506.253 383.695 509.599 383.611 512.776 384.441C512.783 384.445 512.789 384.443 512.796 384.447C515.258 385.086 517.553 386.249 519.524 387.856C519.639 387.949 519.748 388.043 519.857 388.137C522.355 390.28 524.2 393.083 525.179 396.225L538.687 439.392C539.692 442.587 539.761 446.003 538.885 449.236C538.832 449.418 538.779 449.599 538.726 449.781C538.07 451.923 537.015 453.921 535.616 455.671C535.607 455.68 535.6 455.69 535.595 455.701C533.411 458.413 530.47 460.414 527.145 461.448L501.668 469.421L477.646 392.656L503.122 384.683Z" fill="#498DC9"/>
<path d="M462.949 330.081L495.76 434.931C495.864 435.26 495.901 435.606 495.871 435.949C495.84 436.293 495.742 436.627 495.582 436.932C495.423 437.237 495.204 437.508 494.94 437.729C494.676 437.95 494.37 438.117 494.041 438.22C493.712 438.323 493.366 438.36 493.023 438.329C492.68 438.298 492.346 438.2 492.041 438.04C491.736 437.88 491.465 437.662 491.244 437.397C491.023 437.133 490.857 436.827 490.754 436.498L459.594 336.925C459.172 335.572 459.285 334.108 459.909 332.835C460.533 331.562 461.621 330.577 462.949 330.081Z" fill="#4B5259"/>
<path d="M503.872 475.174C501.277 475.174 499.174 473.07 499.174 470.476C499.174 467.882 501.277 465.778 503.872 465.778C506.466 465.778 508.569 467.882 508.569 470.476C508.569 473.07 506.466 475.174 503.872 475.174Z" fill="#4B5259"/>
<path d="M534.466 465.599C531.871 465.599 529.768 463.496 529.768 460.902C529.768 458.307 531.871 456.204 534.466 456.204C537.06 456.204 539.163 458.307 539.163 460.902C539.163 463.496 537.06 465.599 534.466 465.599Z" fill="#4B5259"/>
<path d="M512.776 384.441C517.642 399.696 530.387 439.584 535.596 455.702C535.601 455.691 535.608 455.68 535.616 455.671C537.016 453.922 538.071 451.923 538.727 449.781C538.78 449.6 538.833 449.418 538.886 449.237C533.301 431.722 523.947 402.181 519.857 388.138C519.748 388.043 519.639 387.949 519.525 387.857C517.553 386.25 515.258 385.087 512.796 384.447C512.789 384.443 512.784 384.445 512.776 384.441Z" fill="#4B5259"/>
<path d="M128.917 475.48H579.769C579.988 475.479 580.199 475.392 580.354 475.236C580.509 475.081 580.596 474.87 580.596 474.651C580.596 474.431 580.509 474.22 580.354 474.065C580.199 473.91 579.988 473.822 579.769 473.821H128.917C128.697 473.822 128.487 473.91 128.332 474.065C128.177 474.22 128.09 474.431 128.09 474.651C128.09 474.87 128.177 475.081 128.332 475.236C128.487 475.392 128.697 475.479 128.917 475.48Z" fill="#CACACA"/>
<path d="M361.734 40.5408C368.894 33.4205 375.752 23.7371 385.849 23.7412C401.364 23.7476 408.03 46.2141 423.214 49.4067C429.995 50.8326 436.914 47.994 443.843 47.8712C450.772 47.7484 459.06 52.7795 457.596 59.553L325.501 57.5616C339.155 56.1438 351.926 50.1445 361.734 40.5408Z" fill="#F0F0F0"/>
<path d="M67.54 10.8311C83.0559 10.8374 89.721 33.3039 104.905 36.4965C111.687 37.9224 118.606 35.0838 125.535 34.961C132.463 34.8382 140.751 39.8693 139.287 46.6429L7.19247 44.6514C20.8461 43.2337 33.6174 37.2343 43.4258 27.6306C50.5851 20.5103 57.4432 10.8269 67.54 10.8311Z" fill="#F0F0F0"/>
</g>
<defs>
<clipPath id="clip0_490_5417">
<rect width="580" height="475.724" fill="white" transform="matrix(-1 0 0 1 580.598 0)"/>
</clipPath>
</defs>
</svg>
