<svg width="24" height="24" viewBox="0 0 24 24" fill="none" xmlns="http://www.w3.org/2000/svg">
<path d="M17.9986 15.0005C17.213 15.0011 16.459 15.3099 15.8986 15.8605L7.99857 12.3405V12.0005V11.6705L15.8986 8.14048C16.3934 8.6255 17.0408 8.92428 17.731 8.98609C18.4211 9.0479 19.1113 8.86892 19.6844 8.47955C20.2576 8.09018 20.6783 7.51442 20.875 6.85007C21.0718 6.18572 21.0326 5.47373 20.764 4.83504C20.4953 4.19634 20.0139 3.67031 19.4015 3.34629C18.789 3.02227 18.0833 2.92024 17.4042 3.05753C16.725 3.19481 16.1143 3.56295 15.6758 4.09942C15.2373 4.63588 14.998 5.3076 14.9986 6.00048V6.34048L7.09857 9.86048C6.67693 9.44623 6.14231 9.16577 5.56183 9.05431C4.98135 8.94284 4.38088 9.00534 3.8358 9.23395C3.29071 9.46256 2.82531 9.8471 2.49801 10.3393C2.1707 10.8315 1.99609 11.4094 1.99609 12.0005C1.99609 12.5916 2.1707 13.1695 2.49801 13.6617C2.82531 14.1539 3.29071 14.5384 3.8358 14.767C4.38088 14.9956 4.98135 15.0581 5.56183 14.9467C6.14231 14.8352 6.67693 14.5547 7.09857 14.1405L14.9986 17.6705V18.0005C14.9986 18.5938 15.1745 19.1738 15.5042 19.6672C15.8338 20.1605 16.3023 20.5451 16.8505 20.7721C17.3987 20.9992 18.0019 21.0586 18.5838 20.9428C19.1658 20.8271 19.7003 20.5414 20.1199 20.1218C20.5394 19.7022 20.8252 19.1677 20.9409 18.5858C21.0567 18.0038 20.9973 17.4006 20.7702 16.8524C20.5431 16.3043 20.1586 15.8357 19.6653 15.5061C19.1719 15.1764 18.5919 15.0005 17.9986 15.0005ZM17.9986 5.00048C18.1964 5.00048 18.3897 5.05913 18.5541 5.16901C18.7186 5.27889 18.8468 5.43507 18.9224 5.6178C18.9981 5.80052 19.0179 6.00159 18.9794 6.19557C18.9408 6.38955 18.8455 6.56773 18.7057 6.70759C18.5658 6.84744 18.3876 6.94268 18.1937 6.98127C17.9997 7.01985 17.7986 7.00005 17.6159 6.92436C17.4332 6.84867 17.277 6.7205 17.1671 6.55605C17.0572 6.3916 16.9986 6.19826 16.9986 6.00048C16.9986 5.73526 17.1039 5.48091 17.2915 5.29337C17.479 5.10584 17.7334 5.00048 17.9986 5.00048ZM4.99857 13.0005C4.80079 13.0005 4.60745 12.9418 4.443 12.832C4.27855 12.7221 4.15038 12.5659 4.07469 12.3832C3.999 12.2004 3.9792 11.9994 4.01778 11.8054C4.05637 11.6114 4.15161 11.4332 4.29146 11.2934C4.43131 11.1535 4.6095 11.0583 4.80348 11.0197C4.99746 10.9811 5.19853 11.0009 5.38125 11.0766C5.56398 11.1523 5.72016 11.2805 5.83004 11.4449C5.93992 11.6094 5.99857 11.8027 5.99857 12.0005C5.99857 12.2657 5.89321 12.5201 5.70568 12.7076C5.51814 12.8951 5.26379 13.0005 4.99857 13.0005ZM17.9986 19.0005C17.8008 19.0005 17.6074 18.9418 17.443 18.832C17.2785 18.7221 17.1504 18.5659 17.0747 18.3832C16.999 18.2004 16.9792 17.9994 17.0178 17.8054C17.0564 17.6114 17.1516 17.4332 17.2915 17.2934C17.4313 17.1535 17.6095 17.0583 17.8035 17.0197C17.9975 16.9811 18.1985 17.0009 18.3813 17.0766C18.564 17.1523 18.7202 17.2805 18.83 17.4449C18.9399 17.6094 18.9986 17.8027 18.9986 18.0005C18.9986 18.2657 18.8932 18.5201 18.7057 18.7076C18.5181 18.8951 18.2638 19.0005 17.9986 19.0005Z" fill="#1E272F"/>
</svg>
