<svg width="18" height="18" viewBox="0 0 18 18" fill="none" xmlns="http://www.w3.org/2000/svg">
<path fill-rule="evenodd" clip-rule="evenodd" d="M7.15523 5.81338C7.05452 5.81338 6.96194 5.75712 6.91324 5.66686C6.89037 5.62419 6.87857 5.57698 6.87857 5.53016C6.87857 5.47766 6.89296 5.42517 6.92099 5.3791L8.76575 2.38217C8.81666 2.29985 8.90482 2.25 8.99999 2.25C9.09516 2.25 9.18332 2.29985 9.23423 2.38217L11.079 5.3791C11.1325 5.46634 11.1358 5.57661 11.0867 5.66686C11.0384 5.75712 10.9458 5.81338 10.8447 5.81338H9.27665V8.72334H12.1866V7.15524C12.1866 7.05453 12.2429 6.96194 12.3331 6.91325C12.3758 6.89038 12.423 6.87858 12.4698 6.87858C12.5223 6.87858 12.5748 6.89296 12.6209 6.921L15.6178 8.76576C15.7002 8.81666 15.75 8.90482 15.75 9C15.75 9.09517 15.7002 9.18333 15.6178 9.23423L12.6209 11.079C12.5337 11.1325 12.4234 11.1358 12.3331 11.0867C12.2429 11.0384 12.1866 10.9458 12.1866 10.8448V9.27665L9.27667 9.27665V12.1866H10.8448C10.9455 12.1866 11.0381 12.2429 11.0868 12.3331C11.1096 12.3758 11.1214 12.423 11.1214 12.4698C11.1214 12.5223 11.107 12.5748 11.079 12.6209L9.23425 15.6178C9.18334 15.7002 9.09518 15.75 9.00001 15.75C8.90484 15.75 8.81668 15.7002 8.76577 15.6178L6.92102 12.6209C6.86753 12.5337 6.86421 12.4234 6.91327 12.3331C6.96159 12.2429 7.05418 12.1866 7.15525 12.1866H8.72335V9.27666H5.81338V10.8448C5.81338 10.9455 5.75712 11.0381 5.66686 11.0867C5.62419 11.1096 5.57698 11.1214 5.53016 11.1214C5.47766 11.1214 5.42517 11.107 5.3791 11.079L2.38217 9.23424C2.29985 9.18334 2.25 9.09518 2.25 9C2.25 8.90483 2.29985 8.81667 2.38217 8.76577L5.3791 6.92101C5.46634 6.86752 5.57661 6.8642 5.66686 6.91326C5.75712 6.96158 5.81338 7.05417 5.81338 7.15525V8.72335H8.72333V5.81338H7.15523Z" fill="#4B5259"/>
</svg>
