<svg width="585" height="420" viewBox="0 0 585 420" fill="none" xmlns="http://www.w3.org/2000/svg">
<g clip-path="url(#clip0_490_5311)">
<path d="M114.619 70.5271C125.894 70.5271 135.035 61.3908 135.035 50.1205C135.035 38.8502 125.894 29.7139 114.619 29.7139C103.344 29.7139 94.2031 38.8502 94.2031 50.1205C94.2031 61.3908 103.344 70.5271 114.619 70.5271Z" fill="#787D82"/>
<path d="M52.4375 295.8L64.9805 252.319L69.2505 253.653C69.2505 253.653 64.1799 286.197 56.1737 294.466L52.4375 295.8Z" fill="#787D82"/>
<path d="M100.208 62.3921C100.208 62.3921 101.809 79.4643 98.0732 84.2658C94.3369 89.0674 100.475 98.4038 100.475 98.4038L111.684 111.741L128.23 104.272L130.632 90.4012L129.031 80.7981C129.031 80.7981 123.426 75.1962 125.828 65.0596C128.23 54.923 100.208 62.3921 100.208 62.3921Z" fill="#FFCF99"/>
<path opacity="0.1" d="M100.208 62.3921C100.208 62.3921 101.809 79.4643 98.0732 84.2658C94.3369 89.0674 100.475 98.4038 100.475 98.4038L111.684 111.741L128.23 104.272L130.632 90.4012L129.031 80.7981C129.031 80.7981 123.426 75.1962 125.828 65.0596C128.23 54.923 100.208 62.3921 100.208 62.3921Z" fill="#4B5259"/>
<path d="M109.815 381.695V392.631L124.493 395.566L123.159 377.427L109.815 381.695Z" fill="#FFCF99"/>
<path d="M153.85 377.426L150.647 392.631L157.053 397.166L168.262 388.897L166.927 375.825L153.85 377.426Z" fill="#FFCF99"/>
<path d="M125.829 394.231C125.829 394.231 120.224 384.763 109.816 390.697C109.816 390.697 107.948 401.167 106.08 401.967C104.212 402.767 93.8038 417.972 106.08 419.306C118.356 420.64 124.494 416.638 124.494 416.638C124.494 416.638 122.092 418.704 125.829 417.637C129.565 416.57 127.964 410.702 127.964 410.702L125.829 394.231Z" fill="#787D82"/>
<path d="M162.39 387.831C162.39 387.831 154.117 393.699 152.783 391.032C151.449 388.364 149.314 388.631 149.314 388.631C149.314 388.631 141.841 416.788 146.645 418.121C149.738 418.882 152.987 418.715 155.985 417.639C155.985 417.639 162.39 413.155 162.39 416.623C162.39 420.091 180.271 419.841 187.743 419.575C195.216 419.308 191.213 413.706 191.213 413.706L181.338 404.103L170.13 387.831C170.13 387.831 165.059 383.296 162.39 387.831Z" fill="#787D82"/>
<path d="M83.6621 209.373L94.8708 316.875C94.8708 316.875 101.009 382.496 102.076 383.563C103.144 384.63 110.083 388.098 125.294 383.563L121.825 297.668L128.23 244.318L142.908 281.13C142.908 281.13 146.377 380.095 148.779 380.095C151.181 380.095 165.859 384.897 169.329 379.028C172.798 373.159 172.264 309.939 172.264 309.939C172.264 309.939 170.663 210.173 158.92 206.972C147.178 203.771 83.6621 209.373 83.6621 209.373Z" fill="#787D82"/>
<path d="M114.619 72.2611C124.789 72.2611 133.034 64.0205 133.034 53.8552C133.034 43.6898 124.789 35.4492 114.619 35.4492C104.449 35.4492 96.2051 43.6898 96.2051 53.8552C96.2051 64.0205 104.449 72.2611 114.619 72.2611Z" fill="#FFCF99"/>
<path d="M115.687 105.072C115.687 105.072 113.819 93.6011 113.819 91.4671C113.819 89.3331 105.545 87.9993 105.545 87.9993C105.545 87.9993 99.1405 80.797 97.8061 81.864C96.4717 82.931 76.1893 96.5354 72.9868 98.4027C69.7843 100.27 66.315 108.273 66.5819 108.806C66.8487 109.34 83.3949 144.018 83.3949 144.018C83.3949 144.018 90.6005 165.358 85.5299 176.561C80.4593 187.765 74.0543 209.906 83.3949 214.44C92.7355 218.975 138.104 228.845 146.377 220.309C154.65 211.773 160.521 209.372 162.656 209.372C164.791 209.372 153.85 172.293 156.251 168.826C158.653 165.358 155.184 143.751 155.184 143.751L167.46 109.34C167.46 109.34 166.393 90.1333 142.107 85.8653L127.579 78.8242L115.687 105.072Z" fill="#839BB1"/>
<path d="M65.7812 214.174C65.7812 214.174 64.4468 226.978 64.4468 230.713C64.4468 234.447 58.0418 256.321 67.3824 258.989C76.7229 261.656 75.9224 229.913 75.9224 229.913V213.641L65.7812 214.174Z" fill="#FFCF99"/>
<path d="M176.535 202.17C176.535 202.17 178.136 214.441 177.335 217.108C176.535 219.776 185.075 242.983 173.599 244.317C162.123 245.651 165.059 216.575 165.059 216.575V202.17L176.535 202.17Z" fill="#FFCF99"/>
<path d="M63.3799 291.532L71.1192 250.452H73.5211C75.2004 252.616 76.3019 255.171 76.7221 257.878C77.1422 260.584 76.8672 263.353 75.9229 265.924C72.7205 274.993 70.0517 291.532 70.0517 291.532H63.3799Z" fill="#787D82"/>
<path d="M70.5852 105.605L66.5821 108.807C66.5821 108.807 61.2446 193.634 62.579 200.036C63.9134 206.438 57.7753 215.508 63.1128 216.308C68.4502 217.108 74.8552 220.576 77.7908 218.442C80.7264 216.308 81.2602 208.572 82.3277 206.705C83.3952 204.838 85.2633 182.697 85.2633 182.697C85.2633 182.697 90.8676 160.557 87.3982 144.018C83.9289 127.479 80.7264 110.674 80.7264 110.674L70.5852 105.605Z" fill="#839BB1"/>
<path d="M155.185 98.9375L167.461 109.341L176.801 163.758C176.801 163.758 182.672 206.172 178.135 206.706C173.599 207.239 166.66 205.905 163.724 206.706C160.789 207.506 158.387 205.372 158.387 205.372C158.387 205.372 155.185 188.3 155.185 188.033C155.185 187.766 153.05 168.293 153.05 168.293L150.381 146.42L154.384 122.412L155.185 98.9375Z" fill="#839BB1"/>
<path d="M97.2728 350.752C97.2728 350.752 95.5381 355.732 93.1469 362.513C92.0367 365.666 90.7851 369.211 89.4961 372.825C88.6661 375.162 87.8228 377.528 86.9928 379.838C85.6691 383.533 84.3828 387.081 83.2592 390.127C81.7754 394.147 80.5718 397.297 79.926 398.767C76.9904 405.436 23.3488 394.766 19.0788 392.098C14.8088 389.431 13.7413 380.361 13.2076 367.557C13.2049 367.49 13.2023 367.424 13.2023 367.357C13.1329 364.772 13.792 360.923 14.8943 356.407C15.444 354.15 16.1058 351.728 16.8424 349.212C17.8299 345.838 18.9507 342.301 20.1223 338.78C25.1555 323.655 31.0881 308.871 31.0881 308.871C31.0881 308.871 41.4962 301.669 45.2324 296.867C48.9686 292.066 69.518 288.331 69.518 288.331C75.3892 288.598 88.7328 311.272 94.0703 318.207C99.4078 325.143 97.2728 350.752 97.2728 350.752Z" fill="#4B5259"/>
<path d="M67.3833 310.205C68.7098 310.205 69.7851 309.13 69.7851 307.804C69.7851 306.478 68.7098 305.403 67.3833 305.403C66.0568 305.403 64.9814 306.478 64.9814 307.804C64.9814 309.13 66.0568 310.205 67.3833 310.205Z" fill="#787D82"/>
<path d="M71.1195 311.806C71.8565 311.806 72.4539 311.209 72.4539 310.472C72.4539 309.736 71.8565 309.139 71.1195 309.139C70.3826 309.139 69.7852 309.736 69.7852 310.472C69.7852 311.209 70.3826 311.806 71.1195 311.806Z" fill="#787D82"/>
<path d="M93.1474 362.513C92.0372 365.666 90.7855 369.211 89.4965 372.825L16.8428 349.212C17.8302 345.838 18.9511 342.3 20.1226 338.779L93.1474 362.513Z" fill="#EAEDF6"/>
<path d="M86.9929 379.839C85.6692 383.533 84.3829 387.081 83.2593 390.127L13.2023 367.357C13.1329 364.773 13.792 360.923 14.8943 356.407L86.9929 379.839Z" fill="#EAEDF6"/>
<path d="M67.3828 308.337C67.3828 308.337 72.7203 331.811 69.5178 352.618C66.3153 373.425 77.524 392.898 77.524 392.898" stroke="#787D82" stroke-width="3" stroke-miterlimit="10"/>
<path d="M71.1186 310.205C71.1186 310.205 60.7106 348.084 60.4437 353.419C60.1768 358.754 55.9068 396.9 50.5693 400.901" stroke="#787D82" stroke-width="3" stroke-miterlimit="10"/>
<path d="M100.482 42.6237C100.482 42.6237 96.3136 31.7912 102.358 28.2499L104.025 33.0411C104.025 33.0411 119.239 23.8752 123.199 25.9584L119.447 30.958C119.447 30.958 137.162 30.958 138.412 37.8325L132.16 38.0408C132.16 38.0408 138.829 42.4154 139.038 49.4982L125.699 50.3314L132.16 54.0811C132.16 54.0811 107.985 57.4142 102.149 47.8316L100.482 42.6237Z" fill="#787D82"/>
<path d="M96.8721 43.0523C96.8721 43.0523 101.676 52.6554 108.081 50.2546C114.486 47.8538 108.081 39.051 108.081 39.051L103.811 36.917L96.8721 43.0523Z" fill="#787D82"/>
<path d="M511.108 194.551L424.002 85.75C420.047 89.3654 415.174 91.825 409.915 92.8599C393.516 96.088 377.501 84.8947 374.145 67.8589C372.988 62.2249 373.392 56.3821 375.314 50.961C377.236 45.5399 380.603 40.7464 385.051 37.0979L355.35 0L186.143 144.549L341.9 339.1L511.108 194.551Z" fill="#EAEDF6"/>
<path d="M402.875 87.6908C416.437 87.6908 427.432 76.7013 427.432 63.1452C427.432 49.589 416.437 38.5996 402.875 38.5996C389.313 38.5996 378.318 49.589 378.318 63.1452C378.318 76.7013 389.313 87.6908 402.875 87.6908Z" fill="#EAEDF6"/>
<path d="M249.222 172.516L241.708 181.208L267.022 203.071L274.535 194.379L249.222 172.516Z" fill="#1C70BB"/>
<path d="M411.946 327.952L404.433 336.644L426.871 356.023L434.384 347.331L411.946 327.952Z" fill="#1C70BB"/>
<path d="M452.489 263.214V263.888C452.474 265.58 452.425 267.265 452.344 268.942C450.883 297.643 438.496 324.7 417.72 344.566C396.945 364.432 369.355 375.604 340.604 375.792C311.853 375.98 284.119 365.17 263.085 345.577C242.052 325.984 229.311 299.092 227.475 270.412C227.322 268.031 227.245 265.631 227.245 263.214C227.205 239.899 234.444 217.152 247.954 198.145C249.034 196.613 250.158 195.11 251.325 193.634C252.129 192.608 252.957 191.605 253.792 190.609C272.803 168.097 299.885 153.93 329.227 151.146C358.569 148.363 387.834 157.186 410.742 175.723C412.098 176.818 413.431 177.951 414.734 179.107C415.776 180.034 416.8 180.981 417.806 181.948C437.623 200.895 449.82 226.433 452.098 253.749C452.359 256.873 452.489 260.028 452.489 263.214Z" fill="#4B5259"/>
<path d="M339.867 389.952C269.952 389.952 213.071 333.097 213.071 263.214C213.03 231.24 225.12 200.441 246.903 177.026L249.711 179.631C228.586 202.338 216.862 232.207 216.902 263.214C216.902 330.986 272.064 386.123 339.867 386.123C356.341 386.179 372.656 382.898 387.828 376.48C403 370.062 416.713 360.638 428.142 348.778L430.893 351.443C419.108 363.673 404.967 373.39 389.322 380.009C373.678 386.627 356.855 390.009 339.867 389.952Z" fill="#1C70BB"/>
<path d="M358.254 387.271H326.076V419.435H358.254V387.271Z" fill="#1C70BB"/>
<path d="M251.325 193.634C251.38 193.657 251.432 193.688 251.478 193.726C252.083 194.224 251.325 195.181 251.417 195.97C251.524 196.981 252.873 197.203 253.891 197.302C254.91 197.41 256.198 198.229 255.715 199.133C253.156 200.013 250.566 199.148 247.954 198.145C234.444 217.152 227.205 239.898 227.245 263.214C227.245 265.634 227.322 268.033 227.475 270.412C227.689 270.568 227.924 270.695 228.172 270.787C228.938 271.078 229.827 271.025 230.532 271.438C231.091 271.768 231.467 272.35 232.026 272.656C233.627 273.529 235.849 271.852 237.343 272.893C237.729 273.245 238.095 273.618 238.439 274.011C239.818 275.206 242.085 274.402 243.679 275.298C244.706 275.872 245.234 277.021 245.786 278.062C247.157 280.666 249.379 283.224 252.313 283.431C253.239 283.388 254.166 283.419 255.087 283.522C255.991 283.729 256.879 284.518 256.734 285.429C256.481 286.999 257.255 288.715 257.048 290.284C256.673 293.156 252.604 294.412 252.26 297.284C252.259 297.916 252.223 298.547 252.152 299.175C251.969 299.926 251.402 300.538 251.202 301.289C250.819 302.705 251.838 304.122 252.949 305.072C254.068 306.029 255.401 306.856 256.014 308.189C256.657 309.605 256.343 311.252 256.55 312.791C257.01 316.153 259.913 318.642 262.901 320.25C263.859 320.65 264.709 321.269 265.384 322.057C266.15 323.167 266.073 324.63 266.334 325.955C266.962 329.194 269.689 331.867 269.766 335.167C269.819 337.518 268.517 339.647 267.736 341.86C266.932 344.18 266.693 346.658 267.038 349.089C271.407 352.793 276.05 356.159 280.928 359.159C281.194 358.767 281.388 358.332 281.503 357.873C281.596 357.365 281.532 356.841 281.32 356.371C281.108 355.9 280.757 355.505 280.315 355.239C281.139 354.928 281.888 354.448 282.514 353.83C282.822 353.513 283.025 353.11 283.097 352.675C283.168 352.239 283.104 351.792 282.913 351.394C284.261 351.563 285.862 351.647 286.751 350.613C287.464 349.786 287.418 348.546 287.134 347.496C286.745 346.476 286.488 345.411 286.368 344.326C289.492 344.478 292.623 344.373 295.73 344.012C295.281 342.497 294.258 341.217 292.88 340.444C294.29 340.206 295.569 338.521 296.014 337.166C296.398 335.783 296.419 334.325 296.075 332.931C295.968 332.573 295.953 332.194 296.029 331.828C296.256 331.343 296.654 330.958 297.147 330.749C299.477 329.408 301.806 328.071 304.135 326.736C304.55 326.526 304.928 326.25 305.253 325.916C305.981 325.051 305.874 323.757 305.498 322.693C305.123 321.628 304.525 320.625 304.38 319.507C303.951 316.16 307.536 313.756 308.747 310.601C309.158 309.341 309.38 308.028 309.406 306.703C309.505 305.279 309.513 303.632 308.425 302.721C307.375 301.84 305.744 302.039 304.648 301.22C303.644 300.469 303.3 299.022 302.204 298.417C301.208 297.866 299.967 298.218 298.856 297.958C296.91 297.506 295.684 295.262 293.692 295.055C292.574 294.933 291.302 295.484 290.382 294.833C289.57 294.251 289.54 293.095 289.387 292.115C289.114 290.588 288.381 289.181 287.286 288.083C286.19 286.985 284.784 286.249 283.257 285.973C282.101 285.789 280.844 285.858 279.856 285.222C278.86 284.579 278.408 283.377 277.619 282.481C276.362 281.049 274.37 280.536 272.509 280.099C269.98 279.51 267.455 278.918 264.932 278.323C263.591 278.001 261.859 277.833 261.131 279.012C260.916 279.46 260.766 279.938 260.687 280.429C260.413 281.312 259.868 282.087 259.128 282.643C258.387 283.198 257.491 283.506 256.565 283.522C255.932 282.441 254.905 281.646 253.7 281.302C252.912 281.17 252.134 280.985 251.371 280.75C250.972 280.555 250.618 280.281 250.329 279.944C250.04 279.607 249.823 279.214 249.691 278.791C249.559 278.367 249.515 277.921 249.561 277.48C249.608 277.039 249.744 276.611 249.961 276.224C250.396 275.447 250.563 274.549 250.437 273.668C250.311 272.786 249.899 271.971 249.264 271.346C247.977 270.19 246.115 269.907 244.384 270.022C243.932 269.034 244.69 267.923 245.502 267.204C246.322 266.491 247.31 265.787 247.487 264.715C247.77 263.03 245.617 261.751 243.985 262.249C242.354 262.754 241.312 264.339 240.622 265.902C240.288 266.823 239.832 267.697 239.266 268.498C238.976 268.894 238.582 269.203 238.128 269.389C237.674 269.576 237.177 269.633 236.692 269.554C235.343 269.21 234.83 267.609 234.531 266.262C234.052 264.46 233.81 262.604 233.811 260.74C233.823 258.858 234.571 257.055 235.895 255.717C238.124 253.664 241.557 253.863 244.568 254.193C244.245 253.763 244.091 253.23 244.133 252.694C244.175 252.159 244.412 251.657 244.798 251.283C245.2 250.925 245.685 250.671 246.208 250.543C246.731 250.415 247.278 250.417 247.801 250.548C248.709 250.735 249.526 251.224 250.122 251.934C250.98 252.975 251.225 254.392 251.869 255.571C252.52 256.758 253.976 257.769 255.163 257.133C256.198 256.582 256.358 255.158 256.106 254.017C255.845 252.883 255.301 251.773 255.393 250.609C255.569 248.396 257.875 247.056 259.906 246.144C261.936 245.233 264.257 244 264.579 241.795C264.594 241.366 264.677 240.942 264.824 240.539C265.049 240.179 265.363 239.883 265.736 239.681C271.658 235.768 277.688 231.801 284.46 229.665C284.813 229.55 284.851 229.672 285.211 229.588C285.717 229.297 285.38 228.493 284.897 228.171C284.414 227.85 283.771 227.597 283.648 227.03C283.564 226.617 283.809 226.203 283.87 225.782C283.886 225.528 283.84 225.273 283.735 225.041C283.629 224.809 283.469 224.606 283.267 224.45C283.065 224.295 282.828 224.191 282.576 224.148C282.325 224.105 282.067 224.124 281.825 224.204C281.281 223.485 282.353 222.65 283.227 222.405C285.842 221.689 288.526 221.252 291.233 221.103C291.545 221.051 291.866 221.105 292.145 221.256C292.344 221.448 292.462 221.709 292.475 221.985C292.487 222.262 292.394 222.532 292.214 222.742C291.845 223.151 291.437 223.523 290.995 223.852C290.556 224.279 290.242 224.818 290.088 225.411C289.934 226.004 289.946 226.627 290.122 227.214C291.539 227.934 293.072 228.677 294.642 228.424C296.205 228.171 297.592 226.41 296.856 225.009C296.175 223.699 294.114 223.4 293.761 221.968C293.348 220.291 295.723 218.798 295.186 217.159C294.956 216.439 294.236 216.011 293.685 215.497C293.035 214.859 292.594 214.039 292.418 213.146C292.241 212.252 292.338 211.327 292.696 210.489C291.799 210.646 290.878 210.586 290.009 210.314C289.14 210.042 288.349 209.567 287.701 208.927C286.506 207.725 285.556 205.818 283.855 205.879C282.3 205.925 280.959 207.74 279.503 207.189C279.143 207.051 278.768 206.775 278.423 206.936C278.309 207.009 278.214 207.107 278.143 207.222C278.073 207.338 278.03 207.468 278.017 207.602C277.649 209.371 278.285 211.385 277.32 212.917C276.27 214.579 273.842 214.808 272.57 216.309C271.88 217.121 271.612 218.216 270.976 219.074C270.34 219.931 269 220.483 268.234 219.732C268.609 218.963 268.712 218.09 268.525 217.255C268.338 216.42 267.874 215.674 267.207 215.138C266.501 214.675 265.739 214.304 264.939 214.035C264.046 213.658 263.195 213.185 262.403 212.626C262.009 212.385 261.688 212.041 261.476 211.63C261.309 211.114 261.331 210.555 261.538 210.053C261.925 208.947 262.608 207.967 263.511 207.22C264.414 206.472 265.504 205.985 266.663 205.81C267.674 205.672 268.854 205.718 269.528 204.945C269.881 204.539 270.065 203.919 270.586 203.758C270.914 203.689 271.255 203.73 271.559 203.873C272.823 204.317 274.079 204.761 275.343 205.205C275.765 205.399 276.23 205.475 276.692 205.427C276.92 205.398 277.129 205.283 277.276 205.105C277.422 204.927 277.496 204.7 277.481 204.47C277.358 203.842 276.393 203.544 276.485 202.908C276.53 202.7 276.64 202.512 276.799 202.372C278.165 200.919 279.836 199.786 281.692 199.054C283.547 198.322 285.542 198.009 287.533 198.137C288.008 198.926 287.257 199.852 286.621 200.519C285.993 201.193 285.487 202.387 286.253 202.9C286.562 203.062 286.908 203.141 287.257 203.13C288.188 203.255 289.094 203.529 289.938 203.942C291.248 204.508 292.535 205.136 293.792 205.81C293.607 204.989 293.639 204.134 293.884 203.329C294.022 202.934 294.303 202.604 294.671 202.405C295.039 202.205 295.469 202.15 295.876 202.249C296.627 202.54 297.01 203.536 297.814 203.628C298.879 203.75 299.3 202.173 298.856 201.193C298.412 200.212 297.523 199.401 297.454 198.321C297.4 197.601 297.676 196.705 297.102 196.269C296.897 196.133 296.663 196.049 296.42 196.023C291.608 195.143 286.794 194.26 281.978 193.374C281.12 193.213 279.886 193.336 279.848 194.201C279.825 194.691 280.262 195.173 280.07 195.618C279.864 196.092 279.189 196.054 278.699 196.223C278.331 196.39 278.027 196.672 277.833 197.027C277.64 197.382 277.567 197.791 277.626 198.191C277.757 198.987 278.066 199.743 278.53 200.404C277.588 200.013 276.171 199.944 275.228 199.546C275.091 198.455 274.813 197.387 274.401 196.368C274.377 196.206 274.319 196.051 274.229 195.914C274.139 195.777 274.02 195.661 273.88 195.575C273.741 195.489 273.584 195.434 273.421 195.415C273.258 195.396 273.093 195.413 272.938 195.464C271.697 195.656 270.455 195.84 269.214 196.031C268.903 196.046 268.604 196.161 268.364 196.36C267.881 196.873 268.356 197.693 268.341 198.397C268.296 198.791 268.129 199.162 267.865 199.457C267.6 199.752 267.249 199.957 266.862 200.044C266.082 200.202 265.278 200.192 264.503 200.013C262.763 199.745 261.032 199.477 259.293 199.209C260.828 198.72 262.193 197.807 263.231 196.575C263.92 195.763 264.288 194.247 263.292 193.864C262.998 193.783 262.691 193.76 262.388 193.795C260.028 193.81 258.167 191.842 255.96 191.008C255.266 190.749 254.532 190.614 253.792 190.609L251.325 193.634Z" fill="#1C70BB"/>
<path d="M452.343 268.942C452.073 269.304 451.718 269.595 451.309 269.789C450.9 269.982 450.45 270.073 449.999 270.052C447.601 269.845 446.589 266.392 444.214 266.001C444.004 265.947 443.782 265.969 443.586 266.062C443.234 266.254 443.172 266.728 443.149 267.127C443.05 269.102 442.966 271.155 443.739 272.977C444.866 275.642 447.785 277.878 447.172 280.704C443.877 279.18 442.161 275.481 441.387 271.936C440.606 268.39 440.483 264.669 439.089 261.314C438.024 262.67 435.802 261.552 434.837 260.127C433.917 258.78 433.351 257.217 432.462 255.847C431.573 254.483 430.209 253.258 428.585 253.182C426.877 253.105 425.39 254.277 424.088 255.387C422.955 256.224 422.004 257.281 421.292 258.496C420.38 260.334 420.617 262.494 420.571 264.538C420.525 266.744 420.058 269.079 418.549 270.703C417.039 272.319 414.258 272.885 412.596 271.423C411.792 270.585 411.219 269.553 410.933 268.429C409.126 263.163 407.622 257.799 406.428 252.362C406.153 253.603 405.057 255.203 404.015 254.476C403.782 254.278 403.594 254.032 403.464 253.756C401.518 250.471 397.924 248.495 394.285 247.308C390.654 246.129 386.831 245.577 383.238 244.276C381.223 243.544 379.297 242.586 377.499 241.419C377.042 242.092 376.776 242.875 376.727 243.686C376.679 244.498 376.85 245.307 377.223 246.029C377.627 246.736 378.253 247.289 379.004 247.604C379.755 247.918 380.589 247.976 381.376 247.768C382.173 247.507 382.847 246.956 383.636 246.68C384.425 246.412 385.49 246.542 385.835 247.308C386.172 248.036 385.666 248.916 385.919 249.682C386.294 250.838 388.049 250.93 388.662 251.987C388.842 252.405 388.883 252.871 388.78 253.314C388.677 253.758 388.434 254.157 388.087 254.453C387.382 255.027 386.604 255.506 385.773 255.877C383.199 257.309 381.368 259.752 379.116 261.651C376.863 263.558 373.684 264.944 371.002 263.727C371.638 260.487 367.785 258.113 367.072 254.889C366.835 253.825 366.957 252.699 366.628 251.665C366.145 250.164 364.812 249.138 363.724 248.005C362.402 246.614 361.372 244.972 360.695 243.177C360.017 241.382 359.706 239.469 359.778 237.552C359.84 236.219 360.085 234.864 359.778 233.562C359.48 232.268 358.399 231.012 357.066 231.066C354.025 231.204 350.186 231.433 348.593 228.837C348.018 227.911 347.773 226.555 348.601 225.843C348.924 225.638 349.285 225.499 349.662 225.435C350.04 225.371 350.426 225.382 350.799 225.468C353.09 225.69 355.373 225.92 357.664 226.142C359.265 226.295 360.997 226.425 362.376 225.59C363.755 224.756 364.352 222.527 363.073 221.539C362.146 220.819 360.476 220.858 360.2 219.717C359.978 218.759 361.035 217.68 360.46 216.876C360.054 216.309 359.135 216.462 358.576 216.891C358.088 217.397 357.557 217.861 356.99 218.277C355.894 218.844 354.592 218.3 353.412 217.932C352.232 217.565 350.654 217.534 350.087 218.629C349.443 219.847 350.646 221.455 350.018 222.68C349.175 224.296 346.34 223.377 345.161 224.771C343.812 226.364 346.08 228.753 345.628 230.79C345.046 231.078 344.399 231.211 343.75 231.175C343.102 231.139 342.474 230.935 341.927 230.583C341.391 230.219 340.964 229.716 340.692 229.128C340.419 228.54 340.311 227.889 340.38 227.244C340.487 226.325 340.97 225.383 340.648 224.518C340.301 223.85 339.728 223.326 339.031 223.04C336.81 221.807 334.588 220.579 332.366 219.357C331.746 220.505 332.527 221.922 333.508 222.787C334.481 223.645 335.706 224.296 336.35 225.429C336.758 226.215 336.85 227.126 336.608 227.977C336.365 228.828 335.808 229.555 335.048 230.009C334.951 230.075 334.842 230.119 334.727 230.139C334.612 230.159 334.494 230.154 334.381 230.124C334.275 230.061 334.182 229.978 334.108 229.88C334.035 229.781 333.982 229.669 333.952 229.549C332.78 226.54 331.01 223.576 328.191 222.006C325.364 220.429 321.311 220.758 319.457 223.4C319.02 224.028 318.721 224.748 318.338 225.414C316.308 228.944 311.941 230.614 307.865 230.507C307.466 230.532 307.069 230.439 306.724 230.239C306.065 229.787 306.095 228.822 306.195 228.025C306.34 226.9 306.478 225.782 306.624 224.656C306.627 223.969 306.893 223.308 307.367 222.81C308.126 222.213 309.213 222.588 310.179 222.573C310.907 222.541 311.608 222.284 312.185 221.839C312.763 221.393 313.188 220.78 313.404 220.084C313.598 219.382 313.597 218.639 313.4 217.937C313.203 217.236 312.817 216.601 312.286 216.102C311.849 215.689 311.259 215.168 311.489 214.609C311.582 214.455 311.708 214.323 311.858 214.222C312.007 214.122 312.177 214.055 312.355 214.027C314.078 213.529 315.909 213.399 317.603 212.802C319.303 212.212 320.951 211.002 321.357 209.248C321.479 208.712 321.533 208.061 322.016 207.793C322.259 207.696 322.519 207.644 322.782 207.64C323.703 207.508 324.541 207.037 325.133 206.318C325.724 205.6 326.025 204.686 325.977 203.758C326.789 203.191 327.93 203.612 328.719 204.217C329.501 204.822 330.198 205.618 331.156 205.879C332.941 206.369 334.665 204.784 336.519 204.776C337.3 204.776 338.104 205.052 338.832 204.784C339.575 204.516 340.02 203.781 340.587 203.237C341.161 202.685 342.157 202.356 342.686 202.946C342.533 201.835 342.387 200.733 342.234 199.63C343.137 199.857 344.077 199.889 344.993 199.722C345.909 199.556 346.778 199.195 347.543 198.665C345.613 198.014 343.69 197.363 341.759 196.712C341.556 196.662 341.369 196.562 341.215 196.421C340.794 195.969 341.215 195.265 341.552 194.752C342.372 193.519 342.51 191.49 341.161 190.877C340.242 190.456 339.192 190.961 338.311 191.451C336.902 192.232 335.492 193.021 334.082 193.802C333.952 194.606 334.933 195.066 335.538 195.602C335.907 195.929 336.168 196.36 336.287 196.838C336.406 197.316 336.377 197.819 336.205 198.281C336.032 198.743 335.724 199.141 335.321 199.424C334.917 199.708 334.437 199.862 333.944 199.867C334.222 200.23 334.415 200.649 334.509 201.096C334.603 201.543 334.596 202.005 334.488 202.448C333.546 202.517 332.596 202.586 331.646 202.655C331.488 202.686 331.326 202.686 331.168 202.655C331.01 202.623 330.86 202.561 330.727 202.471C330.42 202.203 330.466 201.728 330.389 201.33C330.263 200.854 329.997 200.427 329.626 200.103C329.254 199.78 328.795 199.575 328.306 199.515C327.33 199.405 326.341 199.497 325.402 199.783C324.993 199.927 324.546 199.916 324.146 199.752C323.918 199.602 323.746 199.382 323.655 199.125C323.488 198.599 323.46 198.04 323.573 197.501C323.686 196.962 323.936 196.46 324.299 196.046C325.034 195.229 325.845 194.483 326.72 193.818C328.702 192.083 330.159 189.828 330.926 187.308C332.489 186.65 334.105 185.761 335.676 185.103C336.938 184.518 338.262 184.074 339.621 183.778C340.901 183.583 342.198 183.521 343.49 183.594C345.253 183.625 347.022 183.656 348.784 183.694C350.357 183.628 351.929 183.854 353.42 184.36C354.868 184.957 356.147 186.252 356.247 187.814C356.277 187.992 356.261 188.175 356.201 188.345C356.14 188.515 356.037 188.667 355.902 188.786C355.698 188.899 355.467 188.952 355.235 188.94C353.772 188.985 353.151 189.353 351.688 189.407C352.615 190.395 353.657 191.436 355.005 191.612C357.38 191.918 359.089 189.46 360.185 187.324C360.224 187.868 360.474 188.375 360.882 188.737C361.29 189.098 361.823 189.287 362.368 189.261C362.955 189.16 363.515 188.941 364.015 188.618C368.728 186.044 374.006 184.681 379.376 184.651C379.324 184.245 379.424 183.833 379.657 183.497C379.891 183.16 380.241 182.922 380.64 182.829C381.736 182.614 382.717 183.556 383.245 184.536C383.766 185.516 384.096 186.65 384.938 187.385C385.773 188.12 387.39 188.082 387.719 187.025C388.041 186.007 386.976 185.134 386.095 184.529C385.207 183.931 384.28 182.821 384.877 181.933C389.382 180.929 393.925 179.934 398.545 179.735C399.33 179.758 400.112 179.623 400.843 179.337C401.206 179.183 401.507 178.915 401.701 178.573C401.895 178.231 401.97 177.834 401.916 177.445C400.908 177.68 399.853 177.611 398.884 177.245C397.916 176.88 397.078 176.235 396.476 175.393C401.219 175.002 406.183 174.658 410.742 175.722L414.733 179.107C413.975 179.896 412.964 180.638 413.515 181.427C413.697 181.608 413.918 181.746 414.161 181.829C414.404 181.913 414.662 181.94 414.917 181.91C415.883 181.925 416.848 181.948 417.806 181.948C437.622 200.894 449.819 226.433 452.098 253.748C450.489 253.687 449.01 255.724 449.217 257.501C449.462 259.561 450.949 261.215 452.014 262.991C452.19 263.28 452.348 263.579 452.489 263.887L452.343 268.942Z" fill="#1C70BB"/>
<path d="M0 419.342H584.876" stroke="#4B5259" stroke-width="2" stroke-miterlimit="10"/>
<path d="M241.296 52.6844C246.663 52.6844 251.015 48.3352 251.015 42.9701C251.015 37.6051 246.663 33.2559 241.296 33.2559C235.928 33.2559 231.577 37.6051 231.577 42.9701C231.577 48.3352 235.928 52.6844 241.296 52.6844Z" stroke="#4B5259" stroke-width="2" stroke-miterlimit="10"/>
<path d="M528.465 237.681C533.833 237.681 538.184 233.331 538.184 227.966C538.184 222.601 533.833 218.252 528.465 218.252C523.097 218.252 518.746 222.601 518.746 227.966C518.746 233.331 523.097 237.681 528.465 237.681Z" stroke="#4B5259" stroke-width="2" stroke-miterlimit="10"/>
<path d="M462.118 140.903C467.486 140.903 471.837 136.554 471.837 131.189C471.837 125.824 467.486 121.475 462.118 121.475C456.751 121.475 452.399 125.824 452.399 131.189C452.399 136.554 456.751 140.903 462.118 140.903Z" stroke="#4B5259" stroke-width="2" stroke-miterlimit="10"/>
<path d="M398.354 224.154C404.377 224.154 409.26 219.273 409.26 213.252C409.26 207.231 404.377 202.351 398.354 202.351C392.33 202.351 387.447 207.231 387.447 213.252C387.447 219.273 392.33 224.154 398.354 224.154Z" fill="#4B5259"/>
<path d="M433.387 192.583C441.327 192.583 447.763 186.149 447.763 178.213C447.763 170.277 441.327 163.843 433.387 163.843C425.446 163.843 419.01 170.277 419.01 178.213C419.01 186.149 425.446 192.583 433.387 192.583Z" fill="#FAFBFF"/>
<path d="M447.927 163.315C444.069 159.552 438.872 157.476 433.482 157.543C428.092 157.609 422.949 159.814 419.184 163.671C411.346 171.702 400.154 212.264 400.154 212.264C400.154 212.264 440.444 200.076 448.283 192.045C452.048 188.188 454.125 182.994 454.058 177.606C453.991 172.218 451.786 167.077 447.927 163.315ZM426.81 184.952C425.477 183.651 424.559 181.985 424.173 180.163C423.787 178.342 423.95 176.446 424.641 174.717C425.333 172.988 426.522 171.503 428.058 170.449C429.594 169.396 431.408 168.821 433.271 168.798C435.134 168.775 436.962 169.305 438.523 170.32C440.085 171.335 441.311 172.79 442.045 174.502C442.779 176.213 442.989 178.104 442.648 179.935C442.307 181.765 441.431 183.454 440.13 184.787C438.386 186.574 436.002 187.596 433.504 187.627C431.006 187.657 428.598 186.695 426.81 184.952Z" fill="#189877"/>
</g>
<defs>
<clipPath id="clip0_490_5311">
<rect width="584.876" height="420" fill="white"/>
</clipPath>
</defs>
</svg>
