<svg width="50" height="50" viewBox="0 0 50 50" fill="none" xmlns="http://www.w3.org/2000/svg">
<path d="M25.0013 4.16699C20.8809 4.16699 16.853 5.38885 13.4269 7.67804C10.0009 9.96724 7.33065 13.221 5.75382 17.0278C4.177 20.8345 3.76443 25.0234 4.56828 29.0647C5.37214 33.106 7.35633 36.8181 10.2699 39.7317C13.1835 42.6453 16.8957 44.6295 20.9369 45.4334C24.9782 46.2372 29.1671 45.8246 32.9739 44.2478C36.7807 42.671 40.0344 40.0007 42.3236 36.5747C44.6128 33.1487 45.8346 29.1208 45.8346 25.0003C45.8346 22.2645 45.2958 19.5554 44.2488 17.0278C43.2018 14.5001 41.6673 12.2035 39.7327 10.2689C37.7981 8.33438 35.5015 6.79981 32.9739 5.75284C30.4463 4.70586 27.7372 4.16699 25.0013 4.16699ZM33.9596 20.0212L24.4388 32.5212C24.2447 32.7733 23.9955 32.9776 23.7102 33.1184C23.4249 33.2593 23.1111 33.3329 22.793 33.3337C22.4765 33.3354 22.1639 33.265 21.8787 33.1278C21.5935 32.9906 21.3433 32.7903 21.1471 32.542L16.0638 26.0628C15.8956 25.8467 15.7715 25.5995 15.6988 25.3355C15.626 25.0714 15.606 24.7956 15.6399 24.5238C15.6737 24.252 15.7608 23.9895 15.8961 23.7513C16.0314 23.5132 16.2123 23.304 16.4284 23.1357C16.8649 22.7959 17.4185 22.6434 17.9674 22.7118C18.2392 22.7457 18.5017 22.8327 18.7399 22.968C18.978 23.1033 19.1872 23.2842 19.3555 23.5003L22.7513 27.8337L30.6263 17.417C30.7932 17.1981 31.0016 17.0143 31.2395 16.8759C31.4774 16.7376 31.7403 16.6475 32.0131 16.6107C32.2859 16.5739 32.5632 16.5913 32.8293 16.6617C33.0953 16.7321 33.3449 16.8543 33.5638 17.0212C33.7827 17.188 33.9665 17.3964 34.1049 17.6344C34.2432 17.8723 34.3333 18.1352 34.3701 18.4079C34.4069 18.6807 34.3895 18.958 34.3191 19.2241C34.2487 19.4902 34.1265 19.7398 33.9596 19.9587V20.0212Z" fill="#189877"/>
</svg>
