<svg width="30" height="31" viewBox="0 0 30 31" fill="none" xmlns="http://www.w3.org/2000/svg">
<path d="M13.097 15.0402L7.45953 6.20023L9.87328 5.55273L18.562 13.5777L25.1395 11.8152C25.6199 11.6866 26.1317 11.7541 26.5623 12.0028C26.993 12.2515 27.3072 12.6611 27.4358 13.1415C27.5644 13.6219 27.4969 14.1337 27.2482 14.5643C26.9995 14.9949 26.5899 15.3091 26.1095 15.4377L7.39453 20.4502L6.42453 16.8277L6.72578 16.7465L9.80953 19.8027L6.52703 20.6827C6.25786 20.7549 5.9723 20.7351 5.7157 20.6264C5.4591 20.5176 5.24619 20.3263 5.11078 20.0827L1.83203 14.1752L3.64328 13.6902L6.72578 16.7465L13.097 15.039V15.0402ZM4.99953 24.2502H24.9995V26.7502H4.99953V24.2502Z" fill="#FF8700"/>
</svg>
