<svg width="24" height="24" viewBox="0 0 24 24" fill="none" xmlns="http://www.w3.org/2000/svg">
<g clip-path="url(#clip0_860_6500)">
<path d="M21 12.0002V11.9957C21 9.33249 19.8405 6.94074 17.9993 5.29599L17.9903 5.28849C17.9675 5.26398 17.9421 5.24209 17.9145 5.22324L17.913 5.22249C16.2777 3.78664 14.1747 2.99675 11.9985 3.00099C9.7245 3.00099 7.6485 3.84549 6.066 5.23899L6.07575 5.23074C6.05668 5.24521 6.03909 5.26154 6.02325 5.27949C5.0719 6.12188 4.3104 7.15756 3.7892 8.31646C3.26799 9.47536 2.99899 10.7318 3 12.0025C3 14.665 4.158 17.0567 5.99775 18.7022L6.00675 18.7097C6.03058 18.7368 6.05723 18.7611 6.08625 18.7825L6.08775 18.7832C7.72263 20.217 9.82402 21.0057 11.9985 21.0017C14.1832 21.0051 16.2935 20.2091 17.9318 18.7637L17.922 18.772C18.8898 17.9305 19.6657 16.891 20.1969 15.7237C20.7282 14.5565 21.0026 13.2887 21.0015 12.0062V12.001L21 12.0002ZM17.6535 17.854C17.2077 17.4934 16.7282 17.1764 16.2218 16.9075L16.173 16.8835C16.6328 15.5582 16.9095 14.0305 16.9358 12.4412V12.4292H20.1315C20.0237 14.4853 19.1388 16.4236 17.6558 17.8517L17.6535 17.854ZM12.429 16.7252C13.3913 16.777 14.2905 16.9885 15.12 17.3327L15.066 17.3132C14.4015 18.8282 13.4663 19.8692 12.429 20.098V16.7252ZM12.429 15.8672V12.4292H16.08C16.051 13.8529 15.8042 15.2638 15.348 16.6127L15.3773 16.5145C14.4461 16.1318 13.4557 15.913 12.45 15.868L12.4298 15.8672H12.429ZM12.429 11.5712V8.13324C13.4619 8.0861 14.4787 7.85999 15.4343 7.46499L15.375 7.48674C15.7913 8.70099 16.047 10.1005 16.08 11.5555V11.5712H12.429ZM12.429 7.27524V3.90399C13.4663 4.13274 14.4015 5.16924 15.066 6.68874C14.2905 7.01124 13.3913 7.22199 12.4508 7.27449L12.429 7.27524ZM14.5695 4.27524C15.4533 4.57002 16.2798 5.01449 17.013 5.58924L16.9958 5.57574C16.6635 5.83674 16.2908 6.08274 15.8978 6.29649L15.8558 6.31749C15.5382 5.56804 15.1016 4.87485 14.5628 4.26474L14.5695 4.27299V4.27524ZM11.5695 3.90624V7.27524C10.6444 7.22805 9.73418 7.02257 8.8785 6.66774L8.9325 6.68724C9.6 5.17224 10.5338 4.13199 11.571 3.90324L11.5695 3.90624ZM8.1435 6.31524C7.73695 6.09651 7.34957 5.84386 6.9855 5.55999L7.0035 5.57349C7.71535 5.01561 8.51604 4.58154 9.372 4.28949L9.429 4.27224C8.90431 4.86582 8.47679 5.53863 8.16225 6.26574L8.1435 6.31524ZM11.571 8.13249V11.5705H7.92C7.953 10.0997 8.20875 8.70024 8.65425 7.38774L8.625 7.48599C9.5558 7.86809 10.5456 8.08655 11.5508 8.13174L11.571 8.13249ZM11.571 12.4285V15.8665C10.5381 15.9136 9.52128 16.1397 8.56575 16.5347L8.625 16.513C8.20875 15.2995 7.953 13.8992 7.92 12.4442V12.4285H11.571ZM11.571 16.7245V20.0957C10.5338 19.867 9.5985 18.8305 8.934 17.311C9.7095 16.9885 10.6088 16.7785 11.5493 16.726L11.571 16.7245ZM9.4335 19.7245C8.54997 19.4306 7.72346 18.9871 6.99 18.4135L7.008 18.427C7.34025 18.166 7.713 17.92 8.106 17.7062L8.148 17.6852C8.46291 18.435 8.89955 19.1276 9.44025 19.735L9.4335 19.7275V19.7245ZM15.8565 17.6845C16.2915 17.9207 16.6643 18.166 17.0145 18.4397L16.9965 18.4262C16.2847 18.9841 15.484 19.4182 14.628 19.7102L14.571 19.7275C15.0957 19.1342 15.5232 18.4616 15.8378 17.7347L15.8565 17.686V17.6845ZM20.1315 11.5712H16.9358C16.9128 10.0195 16.645 8.48102 16.1423 7.01274L16.173 7.11624C16.7028 6.83729 17.2044 6.50776 17.6708 6.13224L17.6528 6.14574C19.1327 7.56851 20.018 9.49962 20.13 11.5495L20.1308 11.5705L20.1315 11.5712ZM6.3465 6.14649C6.7785 6.49749 7.26375 6.81924 7.77825 7.09299L7.827 7.11699C7.36725 8.44224 7.0905 9.96999 7.06425 11.5592V11.5712H3.86775C3.97552 9.51519 4.86049 7.5769 6.3435 6.14874L6.3465 6.14649ZM3.8685 12.4292H7.06425C7.08724 13.981 7.35504 15.5195 7.85775 16.9877L7.827 16.8842C7.26375 17.1835 6.77925 17.5052 6.32925 17.8682L6.34725 17.8547C4.86731 16.432 3.98203 14.5009 3.87 12.451L3.86925 12.43L3.8685 12.4292Z" fill="#787D82"/>
</g>
<defs>
<clipPath id="clip0_860_6500">
<rect width="18" height="18" fill="white" transform="translate(3 3)"/>
</clipPath>
</defs>
</svg>
